<?xml version="1.0" encoding="utf-8"?>
<!-- Generator: Adobe Illustrator 23.0.5, SVG Export Plug-In . SVG Version: 6.00 Build 0)  -->
<svg version="1.1" id="Layer_1" xmlns="http://www.w3.org/2000/svg" xmlns:xlink="http://www.w3.org/1999/xlink" x="0px" y="0px"
	 viewBox="0 0 1700 1344" style="enable-background:new 0 0 1700 1344;" xml:space="preserve">
<style type="text/css">
	.st0{fill:#EDBD60;}
	.st1{fill:#00B2DA;}
	.st2{fill:#69BE55;}
	.st3{fill:#00B19C;}
</style>
<circle class="st0" cx="477.65" cy="340" r="85.79"/>
<path class="st1" d="M366.3,142.24c-21.36,13.83-15.54,35.47-21.44,53.28c-3.28-0.65-7.15-1.43-11.82-2.36
	c-1.14,15.65-2.22,30.52-3.44,47.37c-5.14-6.94-9.03-12.18-14.35-19.35c-3.69,16.13-6.86,30-10.04,43.87c-0.5,0.09-1,0.18-1.5,0.27
	c-2.87-10.55-5.74-21.1-8.62-31.65c-0.71-0.09-1.42-0.18-2.14-0.27c-8.67,25.5-17.34,51.01-26,76.51c-0.91,0.03-1.83,0.06-2.74,0.1
	c-0.71-10.41-2.36-20.85-1.89-31.2c0.51-11.14,2.56-22.29,4.76-33.26c2.11-10.53,5.27-20.85,8.51-33.34
	c-13.08,6.09-24.4,11.36-38.16,17.76c22.12-31.28,43.2-59.4,80.44-72.04c-5.39-3.55-9.69-6.38-14.79-9.74
	c13.66-9.57,26.82-18.79,39.98-28.02c-19.75-0.22-35.26,9.79-51.63,18.81c-1.4-3.58-2.53-6.47-4.23-10.84
	c-8.57,10.56-16.53,20.36-25.08,30.89c-1.72-7.5-3.2-13.95-5.02-21.88c-11.37,9.9-21.84,19.01-33.59,29.23
	c1.54-5.86,2.64-10.01,3.73-14.17c-0.55-0.52-1.1-1.04-1.65-1.56c-18.57,12.51-37.14,25.02-57.3,38.6
	c6.34-37.9,26.8-63.45,58.67-80.69c31.15-16.85,64.94-18.55,97.3-16.26c-18.21-14.68-37.3-30.07-56.4-45.46
	c36.98,0.69,67.27,14.01,90.34,42.27c15.33,18.78,15.43,18.69,33.51,2.95c23.84-20.76,57.01-27.54,93.49-18.65
	c-3.97,1.93-7.2,3.5-11.29,5.49c2.26,2.43,4.19,4.51,7.41,7.97c-9.65-2.58-17.55-4.69-26.76-7.15c1.75,4.43,2.96,7.5,4.7,11.9
	c-21.15-1.43-40.83,0.8-61.05,14.93c71.64,2.29,119.66,34.74,143.42,100.68c-15.32-13.89-30.65-27.77-45.97-41.66
	c-0.57,0.29-1.13,0.58-1.7,0.87c4.41,12.24,8.83,24.49,13.99,38.82c-14.4-13.07-27.1-24.6-41.57-37.73c0,7.05,0,12.09,0,17.14
	c-0.7,0.21-1.4,0.43-2.1,0.64c-8.83-10.94-17.66-21.87-26.49-32.81c-0.69,0.39-1.38,0.78-2.07,1.17
	c5.17,16.39,9.89,32.95,15.63,49.14c7.34,20.67,1.56,38.63-9.95,57.59c-1.34-20.29,0.71-39.44-9.74-58.45
	c-7.1,11.72-13.42,22.17-21.23,35.07c0.76-16.55,1.4-30.28,2.13-46.16c-6.16,3.21-10.47,5.45-14.74,7.67
	c-2.03-18.09-4.01-35.66-5.98-53.23c-1.23-0.15-2.46-0.3-3.7-0.45c-3.55,10.4-8.14,20.57-10.47,31.23
	c-12.88,58.9-14.36,118.55-8.93,178.33c2.9,31.9,7.53,63.67,12.55,95.32c2.33,14.71,7.44,28.98,12,46.09
	c6.72-7.99,11.71-14,16.79-19.94c50.98-59.48,101.87-119.05,153.05-178.36c12.8-14.84,27.68-18.06,46.17-11.14
	c10.2,3.81,20.16,8.25,30.28,12.29c9.53,3.82,16.47,0.73,22.3-7.54c18.33-25.96,37-51.67,55.55-77.47c2.23-3.1,4.56-6.12,8.09-10.83
	c35.92,38.78,71.36,77.05,107.2,115.75c-0.26,0.01,0.59,0.24,0.94-0.08c15.18-14.12,22.62-14.05,38.82,2.14
	c34.53,34.53,68.7,69.42,103.05,104.12c5.18,5.24,10.55,10.29,16.86,16.41c16.23-17.7,32.58-35.54,49.71-54.24
	c25.45,35.11,50.57,69.77,75.69,104.44c-0.59,0.51-1.18,1.03-1.77,1.54c-22.63-25.88-45.26-51.77-68.92-78.84
	c-6.64,19.57-12.95,38.18-19.68,58.03c-3.23-1.52-6.31-2.79-9.22-4.37c-28.43-15.39-50.43-38.42-72.61-61.23
	c-15-15.42-29.97-30.88-45-46.26c-1.85-1.9-4.05-3.46-7.47-3.78c18.89,22.02,37.78,44.04,56.67,66.06
	c-0.27,0.47-0.55,0.95-0.82,1.42c-11.36-4.42-22.72-8.85-36.74-14.3c25.19,42.89,62.27,70,98.32,99.78
	c-21.59,0.17-38.27-8.18-53.13-20.45c-24.68-20.38-51.66-36.92-81.11-49.32c-16.1-6.78-27.94-17.89-36.54-32.8
	c-12.81-22.22-25.56-44.49-38.36-66.72c-1.07-1.85-2.37-3.57-5.15-7.73c-1.61,15.89-2.97,29.27-4.33,42.64
	c-0.7,0.21-1.41,0.41-2.11,0.62c-21.67-49.6-43.33-99.2-65-148.79c-0.75,0.24-1.5,0.47-2.25,0.71
	c12.36,49.59,24.71,99.18,37.12,148.98c-24.78-18.42-49.55-36.82-74.32-55.23c-0.43,0.47-0.85,0.94-1.28,1.42
	c20.2,29.1,40.39,58.19,61.38,88.43c-18.37,0.96-36.14,2.01-53.93,2.59c-1.71,0.06-4.46-2.53-5.14-4.45
	c-11.1-31.44-31.55-56.42-54.96-79.2c-14.47-14.08-29.67-27.4-46.52-42.87c-5.19,29.85-10.06,57.89-14.68,84.45
	c9.88-3.34,19.52-8.23,29.63-9.57c11.34-1.5,21.26,3.7,28.04,14.89c-20.68,5.87-27.59,22.1-31.11,40.97
	c-1.12,5.98-2.11,12.3-4.88,17.55c-2.66,5.04-6.72,10.88-11.61,12.96c-39.32,16.71-74.65,39.88-108.76,65.19
	c-17.27,12.81-34.44,25.77-51.97,38.22c-5.66,4.02-7.07,7.72-4.52,14.38c6.72,17.57,12.67,35.43,19.22,54.03
	c19.36-10.43,36.51-20.34,54.23-29.09c68.96-34.06,141.06-58.37,217.91-66.07c42.39-4.25,83.8,3.33,124.54,14.89
	c68.18,19.34,124.65,56.42,169.32,111.44c0.59,0.73,1.01,1.6,3.04,4.87c-12.5-7.28-22.76-13.26-33.02-19.23
	c-40.32-23.42-81.54-44.85-126.88-57.04c-49.08-13.19-98.96-18.26-149.75-14.79c-83.92,5.73-158.9,38.64-232.32,76.15
	c-47.14,24.08-93.92,48.83-140.87,73.29c-1,0.52-2,1.06-4.31-0.21c28.22-23.62,56.33-47.37,84.77-70.72c4.59-3.77,6.11-6.3,4-12.5
	c-16.74-49.15-34.28-98.1-48.95-147.88c-17.3-58.71-21.53-119.18-18.04-180.26c2.92-51.19,12.53-101.13,26.15-150.42
	C364.89,150.06,365.28,147.29,366.3,142.24z"/>
<path class="st2" d="M891.46,520.36c-18.44-8.91-36.38-19.15-55.44-26.44c-41.5-15.88-84.62-21.62-129.22-19.21
	c-58.56,3.17-110.95,24.25-161.5,51.7c-25.58,13.89-51.06,27.96-76.62,41.9c-2.29,1.25-4.79,2.12-7.19,3.17
	c-0.67-0.93-1.34-1.87-2.01-2.8c11.67-11.54,22.76-23.76,35.12-34.51c43.75-38.01,93.88-64.33,149.18-81.7
	c29.99-9.42,60.42-15.44,91.57-16.16c45.8-1.06,90.25,6.26,132.44,25.55c35.91,16.42,67.35,39.31,98.24,63.44
	c40.48,31.63,82.42,61.22,130.62,80.32c36.06,14.29,73.15,21.63,112.03,13.39c6.33-1.34,12.76-2.17,18.71-3.16
	c3.89-2.06,7.6-4.08,11.36-6.01c35.46-18.27,63.18-44.47,81.95-79.88c4.3-8.11,8.79-16.13,14.56-26.71
	c0.72,17.65-4.91,30.81-10.55,43.86c-19.16,44.36-50.27,77.08-95.22,95.7c-7.51,3.11-15.31,9.4-22.59,4.18
	c-5.33,2.3-9.22,4.98-13.42,5.63c-61.12,9.5-115.82-10.12-168.25-38.35c-48.17-25.93-89.88-61.26-133.57-93.7
	c3.62-2.3,7.24-4.61,10.85-6.91c-0.37-0.67-0.74-1.34-1.12-2.01c-4.11,0-8.23,0-14.04,0C889.18,515.51,890.32,517.93,891.46,520.36z
	 M1228.11,629.04c-4.97-4.33-8.44-7.35-11.91-10.37c-0.58,0.72-1.17,1.44-1.75,2.15c0.98,2,1.97,4,2.95,6
	c-1.9,0.4-3.9,0.56-5.67,1.27c-1.73,0.7-3.22,1.96-4.82,2.98c1.76,0.93,3.71,2.88,5.26,2.6
	C1216.81,632.83,1221.3,631.11,1228.11,629.04z"/>
<path class="st1" d="M1017.89,491.19c3.41,2.98,7.21,5.62,10.16,9c23.18,26.55,50.42,47.82,84.02,58.8
	c53.83,17.6,116.06,7.65,149.1-50c24.56-42.86,33.78-88.23,21.54-136.96c-1.95-7.76-4.49-15.57-8.04-22.7
	c-5.06-9.02-9.04-13.19-14.95-20.42c-29.43-36.01-72.62-45.28-109.47-28.51c-24.98,11.37-40.17,31.04-42.46,59.37
	c-2.69,33.21,10.18,59.01,37.94,76.75c10.03,6.41,21.84,10.04,32.84,14.95c-16.22,2.58-31.8-1.47-46.08-9.41
	c-36.81-20.48-53.86-62.29-44.82-103.62c5.46-24.97,17.1-45.17,37.45-60.43c36.29-27.22,93.52-27.48,129.27,0.45
	c12.38,9.67,23.16,21.46,34.15,32.78c2.91,3,6.86,8.23,9,12.09c3.72,6.72,8.87,14.91,10.1,20.8c14.49,32.25,15.43,65.04,10.61,99.63
	c-5.11,36.66-16.8,70.95-40.48,100.04c-32.34,39.72-74.38,56.2-125.36,51.8c-34.33-2.96-63.62-16.74-88.95-39.13
	c-18.29-16.17-33.98-34.74-44.31-57.25c-1.01-2.21-1.86-4.49-2.78-6.75C1016.87,492.04,1017.38,491.61,1017.89,491.19z"/>
<path class="st1" d="M626.6,344.54c-12.98,2.67-25.02,5.14-37.66,7.74c1.51-11.39,3.17-23.88,5.05-38.07
	C605.6,325.02,616.06,334.74,626.6,344.54z"/>
<path class="st3" d="M891.46,520.36c-1.14-2.42-2.27-4.85-4.09-8.71c5.82,0,9.93,0,14.04,0c0.37,0.67,0.74,1.34,1.12,2.01
	c-3.62,2.3-7.23,4.61-10.85,6.91C891.68,520.57,891.46,520.36,891.46,520.36z"/>
<g>
	<path class="st1" d="M41.77,801.72l5.79-5.12c4.3-3.56,7.04-5.34,8.23-5.34c0.59-1.63,3.19-4.37,7.79-8.23
		c1.78-0.29,3.6-1.74,5.45-4.34c1.85-2.59,3.82-4.12,5.89-4.56c2.08-0.45,4.37-2.08,6.9-4.9c2.52-2.82,6.01-5.04,10.46-6.68l2.23-2
		c3.41-2.67,5.86-4.01,7.34-4.01l48.74-20.92c1.33-0.59,4.41,0.48,9.24,3.23c4.82,2.75,7.23,7.09,7.23,13.02
		c0,9.2-2,14.54-6.01,16.02c0.3,0.59,0.44,1.33,0.44,2.23c0,1.78-2.23,6.27-6.68,13.46c-4.45,7.2-7.27,11.54-8.46,13.02
		c-1.19,1.49-2.08,3.49-2.67,6.01l-2.23,4.01c0,1.49-0.89,3.56-2.67,6.23l-4.67,8.01c-4.16,5.64-6.53,10.61-7.12,14.91
		c0,0.3-0.97,1.56-2.89,3.78l-3.56,5.79c-1.19,6.38-2.86,10.13-5.01,11.24c-2.15,1.11-3.23,2.11-3.23,3c0,3.41-0.89,6.6-2.67,9.57
		L99.62,896.3c-0.89,2.23-2.6,5.94-5.12,11.13l-1.34,5.79l-4.45,8.23v6.45l-1.56,2.67c-0.59,0.89-1.19,3.08-1.78,6.57
		c-0.59,3.49-1.41,6.31-2.45,8.46c-1.04,2.15-1.56,3.82-1.56,5.01v2.89l0.45,3.56c0,0.59-0.3,1.63-0.89,3.12
		c0.3,1.63,0.44,3.49,0.44,5.56c0,0.89,0.3,1.78,0.89,2.67l0.89-1.34c1.48-0.29,3-1.37,4.56-3.23c1.56-1.85,3-3.15,4.34-3.89
		c1.34-0.74,2.45-2.48,3.34-5.23c0.89-2.74,2.3-4.41,4.23-5.01c5.49-5.49,8.54-9.12,9.13-10.9l12.7-20.92l7.8-10.46
		c0-3.26,2.6-6.9,7.8-10.9c2.38-3.71,4.01-6.57,4.9-8.57s1.78-3,2.67-3c1.63,0,2.75,0.48,3.34,1.45c0.59,0.97,1.04,1.45,1.34,1.45
		c1.19,0,1.78-0.81,1.78-2.45c0-2.08-0.89-3.71-2.67-4.9c-0.3,0-0.45-0.3-0.45-0.89c0-3.71,1.6-7.68,4.79-11.91
		c3.19-4.23,5.38-7.79,6.57-10.68c1.19-2.89,4.09-7.16,8.69-12.8c4.6-5.64,7.42-9.75,8.46-12.35c1.04-2.59,2.45-3.9,4.24-3.9h0.89
		c2.82-2.67,5.27-4.01,7.35-4.01c0.59,0,1.04,0.89,1.33,2.67c1.93-1.19,2.89-2.08,2.89-2.67c0-1.48-1-2.45-3-2.89
		c-2-0.45-3-1.34-3-2.67c0-0.89,2.88-4.75,8.66-11.57c5.77-6.82,8.95-10.24,9.54-10.24c0.59,0,1.33,0.45,2.22,1.34l1.33-0.89v-3.56
		c0-0.59,1.11-2,3.33-4.23c0-2.37,0.96-4.01,2.88-4.9c1.92-0.89,2.89-1.48,2.89-1.78l-0.89-3.34h0.44c1.93-1.19,3.19-2.08,3.78-2.67
		l5.34,0.44c1.19,0,2.08-1.04,2.67-3.12c-2.38-0.74-3.56-1.7-3.56-2.89c0-1.19,1.15-2.67,3.45-4.45c2.3-1.78,3.45-3.56,3.45-5.34
		c0-1.63,3.48-5.34,10.46-11.13c2.08-2.37,4.12-4.86,6.12-7.46c2-2.59,6.04-5.6,12.13-9.01c0.44-3.71,1.33-5.79,2.67-6.23l5.56,0.45
		l2.67-1.78l-0.44-4.67c6.38-4.15,10.53-6.71,12.46-7.68c1.93-0.96,3.56-2.19,4.9-3.67c6.82-4.6,11.5-6.9,14.02-6.9l4.67,0.89
		c2.52-0.89,4.67-1.33,6.45-1.33c1.48,0,2.67,0.22,3.56,0.67s2.45,0.93,4.67,1.45c2.23,0.52,4.19,2.67,5.9,6.45
		c1.7,3.78,2.56,6.86,2.56,9.24l0.44,7.34c0,4.16-1.89,8.61-5.67,13.35c-3.78,4.75-6.86,7.12-9.24,7.12l-2.89-0.45
		c-2.67,1.19-5.6,2.08-8.79,2.67c-3.19,0.59-6.34,2.15-9.46,4.67l-1.34,0.89h-2.67l-0.45,0.89v1.33c-0.74,0.59-1.78,1.71-3.12,3.34
		c-1.33,1.63-3.45,3.6-6.34,5.9c-2.89,2.3-5.67,4.97-8.35,8.01c-2.67,3.04-5.86,5.56-9.57,7.57c-3.71,2-6.16,4.71-7.34,8.12
		l-0.89,0.89h-2.23c-2.82,3.26-5.34,6.34-7.57,9.24c-2.23,2.89-4.19,4.93-5.9,6.12c-1.71,1.19-2.64,2.11-2.78,2.78
		c-0.15,0.67-1.26,2.04-3.34,4.12l-2.23,4.45c-2.23,1.04-4.78,3.53-7.68,7.46c-2.89,3.93-4.64,6.2-5.23,6.79l-1.78,2.23l-3.56,2.23
		c-2.52,2.52-4.23,4.38-5.12,5.56c0,2.82-1.48,4.67-4.45,5.56c-1.48,1.34-2.67,3.93-3.56,7.79c-0.89,3.86-1.86,5.79-2.89,5.79
		l-4.01-0.44c-0.44,0.3-1.26,1.48-2.45,3.56l-1.34,2c-0.89,0.89-1.75,2.45-2.56,4.67c-0.82,2.23-2.56,3.86-5.23,4.9
		c-1.78,4.45-2.82,6.68-3.12,6.68l-2.23,1.78c-0.59,1.93-0.89,3.04-0.89,3.34c-2.67,3.12-4.86,5.45-6.56,7.01
		c-1.71,1.56-2.41,2.56-2.11,3c-0.59,0.89-1.37,1.71-2.34,2.45c-0.97,0.74-1.75,2.11-2.34,4.12c-0.59,2-1.78,3.15-3.56,3.45
		l-1.34,3.12v2.89c-0.59,0.45-3.49,4.08-8.68,10.91l-7.79,13.13l-17.36,23.37c-3.56,0-5.34,2.38-5.34,7.12l-5.12,6.45
		c-1.48,1.48-2.38,3.08-2.67,4.78c-0.3,1.71-1.86,2.56-4.67,2.56c-4.6,5.49-10.02,8.23-16.25,8.23c-1.63,0-2.89,0.15-3.78,0.45
		l-6.9-4.67c-2.08-1.33-3.49-2.41-4.23-3.23c-0.74-0.81-1.26-1.22-1.56-1.22c-2.97-1.33-6.08-6.49-9.35-15.47
		c-3.27-8.97-4.9-16.43-4.9-22.37c0-0.89,0.81-4.9,2.45-12.02v-0.45c0-0.29-0.33-0.96-1-2c-0.67-1.04-1-2-1-2.89
		c0-1.19,0.56-2.19,1.67-3c1.11-0.81,1.67-1.67,1.67-2.56c0-4.15,0.74-7.04,2.23-8.68c0.89-2.67,1.33-4.75,1.33-6.23l-0.89-3.34
		c0-1.19,0.59-2.97,1.78-5.34c2.23-1.04,3.34-2.15,3.34-3.34l-0.45-6.23c0-2.67,1.63-4.23,4.9-4.67c-0.3-1.48-0.44-2.67-0.44-3.56
		c0-1.48,0.37-2.93,1.11-4.34c0.74-1.41,1.19-3.15,1.33-5.23c0.15-2.08,0.78-3.6,1.89-4.56c1.11-0.96,1.96-2.85,2.56-5.67
		c0.59-2.82,2.37-6.38,5.34-10.68c2.97-4.3,4.75-7.53,5.34-9.68c0.59-2.15,1.11-3.23,1.56-3.23c3.41,0,5.12-0.59,5.12-1.78
		c0-1.19-0.97-2.37-2.89-3.56l-0.45-1.34c0-3.12,2.3-6.6,6.9-10.46c0-4.3,1.34-6.45,4.01-6.45l-1.34-3.56
		c0-1.93,1.37-5.3,4.12-10.13c2.74-4.82,4.86-10.27,6.34-16.36l2.45-3.34c1.19-1.48,1.78-2.52,1.78-3.12l-0.44-2.67
		c1.48-3.71,2.23-5.71,2.23-6.01c0-1.63-0.59-2.82-1.78-3.56c-4.6,0.59-8.09,2.67-10.46,6.23l-0.89,1.11h-4.23
		c-2.38,0-5.42,2.52-9.12,7.57l-6.45,5.12c-6.83,5.05-12.28,9.24-16.36,12.57c-4.08,3.34-6.86,6.2-8.34,8.57l-3.34,5.12
		c-0.74,1.33-1.86,5.2-3.34,11.57c-1.48,6.38-5.56,9.57-12.23,9.57c-9.79,0-14.68-5.04-14.68-15.13
		C29.75,813.51,33.76,808.39,41.77,801.72z"/>
	<path class="st1" d="M214.35,909.65l3.57-3.12h1.34c1.04,0,2.6-1.11,4.68-3.34l2.23-0.89c2.97-4.45,5.57-7.04,7.8-7.79l3.57-2.67
		c0.59-0.59,1.45-1.11,2.56-1.56s2.9-1.89,5.35-4.34c2.45-2.45,4.42-3.67,5.9-3.67c1.48,0,2.67,0.15,3.56,0.45
		c0.89-1.78,2.67-3.52,5.34-5.23c2.67-1.7,4.83-3.75,6.46-6.12l2.9-1.34c2.38-1.19,4.49-2.71,6.35-4.56
		c1.86-1.85,4.27-2.78,7.24-2.78c4.3,0,8.8,2.19,13.47,6.57c4.67,4.38,7.01,8.57,7.01,12.57l-3.78,17.36
		c-2.52,12.76-5.34,19.44-8.46,20.03l-0.89,4.67c-2.08,1.48-3.12,2.67-3.12,3.56l1.34,5.34c0,0.74-0.82,1.86-2.45,3.34
		c-0.3,0-0.45,0.45-0.45,1.34v9.12c0,1.63-1.04,2.97-3.12,4.01c0.3,0.3,0.74,0.59,1.34,0.89c0.89-0.89,2.89-1.33,6.01-1.33
		l3.56,0.45l4.89-4.9c1.04-0.29,2.48-1,4.33-2.11c1.85-1.11,5-2.56,9.45-4.34l29.11-22.25c4-4.01,7.03-6.01,9.11-6.01
		c2.22,0,3.33,1.41,3.33,4.23c0,3.27-0.63,5.97-1.89,8.12c-1.26,2.15-2.41,4.75-3.45,7.79c-1.04,3.04-2.26,5.16-3.67,6.34
		c-1.41,1.19-2.56,2.49-3.45,3.89c-0.89,1.41-3.3,3.45-7.23,6.12c-3.93,2.67-7.27,5.38-10.01,8.12c-2.74,2.75-5,4.71-6.78,5.9
		l-9.57,6.9l-1.34,2.22c-0.3,0.3-1.67,0.93-4.12,1.89c-2.45,0.97-4.64,2.19-6.56,3.67l-4,2.22c-0.89,0.59-2.34,0.97-4.34,1.11
		c-2,0.15-3.75,1-5.23,2.56c-1.48,1.56-2.67,2.34-3.56,2.34l-3.34-0.44l-4.45,1.33c-2.52,0-5.6-1.52-9.24-4.56
		c-3.64-3.04-5.45-6.27-5.45-9.68v-1.33l0.45-3.12c0-0.59-0.45-2.11-1.34-4.56s-1.33-3.82-1.33-4.12l0.44-3.12l-0.44-1.34
		c0-4.01,0.3-6.53,0.89-7.57c0.59-1.04,1.04-2.48,1.33-4.34c0.3-1.85,0.59-3.37,0.89-4.56l1.11-5.56c0.59-1.78,1.34-2.97,2.23-3.56
		c0.3-1.19,0.89-3.19,1.78-6.01l0.89-4.01l2.23-3.12c1.19-1.19,1.89-2.78,2.11-4.78c0.22-2,1-4.12,2.34-6.34
		c1.34-2.23,2-3.56,2-4.01c0-1.78-0.89-2.67-2.67-2.67c-0.59,0-2.45,1.19-5.56,3.56l-4.01-1.34c-0.3,0-1.11,0.74-2.45,2.23
		c0,0.59-0.67,1.04-2,1.34c-1.33,0.3-2.6,1.41-3.78,3.34l-1.78,0.45l-2.89-1.34h-0.89c-1.48,0-2.38,1.63-2.67,4.9
		c-1.63,2.38-3.79,3.93-6.46,4.67l-4.9,1.34c-1.63,0.59-2.82,1.93-3.56,4.01c-0.74,2.08-2.23,3.97-4.45,5.67
		c-2.23,1.71-3.71,2.56-4.45,2.56c-4.16,0-6.23-2.3-6.23-6.9l1.78-10.46L214.35,909.65z M310.49,798.38l-1.34-8.68v-1.33
		c0-6.97,2.37-10.83,7.12-11.57c1.04-0.15,4.15-1.11,9.35-2.89c2.67,0.59,5.45,2.93,8.35,7.01c2.89,4.08,4.34,7.68,4.34,10.79
		c0,0.3-0.22,0.97-0.67,2c-0.45,1.04-0.74,3-0.89,5.9c-0.15,2.89-1.6,5.42-4.34,7.57c-2.75,2.15-5.67,3.23-8.79,3.23
		c-2.08,0-4.71-1.45-7.9-4.34C312.53,803.16,310.78,800.6,310.49,798.38z"/>
	<path class="st1" d="M371.91,890.96l0.89-1.78c4.9,0,8.08-2,9.57-6.01l0.89-0.89c5.34-1.78,9.16-3.82,11.46-6.12
		c2.3-2.3,6.45-4.41,12.46-6.34c6.01-1.93,9.16-2.89,9.46-2.89c0.89,0,3.6,1.33,8.12,4.01c4.52,2.67,6.79,7.72,6.79,15.13
		c0,5.34-1.48,10.31-4.45,14.91v6.9l-0.45,1.78c-2.52,1.78-3.78,3.78-3.78,6.01v1.78l0.44,6.45l-6.23,13.58
		c-2.52,1.19-3.78,2.22-3.78,3.12c0,0.59,0.63,1.3,1.89,2.11c1.26,0.82,1.89,1.97,1.89,3.45c0,1.63-0.45,4.67-1.34,9.12
		c0.3,0.3,0.59,0.45,0.89,0.45h0.89c0.59-1.19,1.78-2.08,3.56-2.67l2.23-1.56c0.3-1.63,0.81-2.82,1.56-3.56h2.67
		c1.19,0,1.78-1.19,1.78-3.56c0-0.89,3.26-4.71,9.79-11.46c6.53-6.75,10.49-11.09,11.91-13.02c1.41-1.93,2.93-3.52,4.56-4.79
		c1.63-1.26,2.59-2.56,2.89-3.89c0.3-1.33,1.15-2.59,2.56-3.78c1.41-1.19,2.56-2.41,3.45-3.67c0.89-1.26,2.15-2.41,3.78-3.45
		c1.63-1.04,3.3-2.82,5.01-5.34c1.7-2.52,5.3-6.08,10.79-10.68c0.89-0.74,1.93-2.08,3.12-4.01c1.19-1.93,3.37-3.89,6.57-5.9
		c3.19-2,6.23-4.45,9.12-7.34c2.89-2.89,7.82-4.34,14.8-4.34c4.01,0,7.9,1.89,11.68,5.67s5.67,7.68,5.67,11.68
		c0,2.08-0.37,3.67-1.11,4.79c-0.74,1.11-1.97,3-3.67,5.67c-1.7,2.67-3.3,4.01-4.78,4.01l-4.01-1.34c-2.82,2.82-5.71,4.23-8.68,4.23
		l-4.23-0.89c-2.67,1.78-4.82,2.75-6.45,2.89c-1.63,0.15-3,1.04-4.12,2.67c-1.11,1.63-2.33,2.56-3.67,2.78
		c-1.33,0.22-2.82,0.93-4.45,2.11l-3.56,1.78c-1.48,3.71-4.67,6.45-9.57,8.23c-1.78,1.78-3.42,3.86-4.9,6.23
		c0,0.45-0.71,1.04-2.11,1.78c-1.41,0.74-2.85,2.08-4.34,4.01c-1.48,1.93-2.67,2.89-3.56,2.89h-2c-1.19,1.34-2.08,3.42-2.67,6.23
		c-0.59,2.82-3.04,4.75-7.34,5.79c-0.59,0.3-1.48,1.37-2.67,3.23c-1.19,1.86-2.89,3.3-5.12,4.34c-0.89,3.42-2.82,6.16-5.78,8.23
		l-2.67,4.67c-0.74,1.48-2.19,2.93-4.34,4.34c-2.15,1.41-3.3,2.26-3.45,2.56c-0.15,0.3-1.11,2.26-2.89,5.9
		c-1.78,3.64-3.75,5.97-5.9,7.01c-2.15,1.04-4.27,2.71-6.34,5.01c-2.08,2.3-3.86,3.45-5.34,3.45c-5.19,0-10.75-4.23-16.69-12.68
		c-5.94-8.46-8.9-13.8-8.9-16.02c0-8.31,1.15-14.8,3.45-19.47c2.3-4.67,3.67-9.12,4.12-13.35c0.44-4.23,1.26-7.9,2.45-11.02
		l1.34-6.9l1.78-3.12c1.04-1.19,1.93-3.19,2.67-6.01l1.11-3.56c0-2.67-0.82-4.01-2.45-4.01c-2.08,0-3.86,1.33-5.34,4.01l-0.89,0.89
		c-3.71-0.89-5.64-1.33-5.79-1.33c-1.04,0-2,2.3-2.89,6.9c-0.59,1.49-2.08,2.45-4.45,2.89s-4.97,2.82-7.79,7.12l-1.11,0.89
		c-1.34,0.3-2.23,0.59-2.67,0.89c-2.08,3.42-3.56,5.12-4.45,5.12c-0.89,0-1.82-0.85-2.78-2.56c-0.97-1.7-2.19-3-3.68-3.89
		c-1.48-0.89-2.23-2-2.23-3.34c0-3.41,3.34-7.79,10.01-13.13c1.48-1.19,2.37-2.3,2.67-3.34c0.3-1.04,2.3-1.7,6.01-2
		C369.38,895.33,370.42,893.78,371.91,890.96z"/>
	<path class="st1" d="M687.35,929.23l3.55-3.12c2.22,0,3.55-1,3.99-3c0.44-2,2.03-3.6,4.77-4.79c2.74-1.19,5.29-3.59,7.66-7.23
		c2.37-3.63,4.81-5.45,7.32-5.45c0.89,0,1.92,0.74,3.1,2.23c1.18,1.48,1.78,2.67,1.78,3.56c0,4.9-1.48,9.94-4.45,15.13l-0.89,6.23
		l-1.56,2.89c-2.23,1.19-3.67,2.45-4.34,3.78c-0.67,1.33-2.41,2.97-5.23,4.9l-2.23,3.12c-3.27,1.04-5.45,2.75-6.57,5.12
		c-1.11,2.38-2.67,3.71-4.67,4.01c-2,0.3-4.19,1.78-6.56,4.45c-1.48,0.74-3.26,1.41-5.34,2l-0.45,2.23
		c-1.48,1.49-3.82,2.67-7.01,3.56c-3.19,0.89-5.56,1.75-7.12,2.56c-1.56,0.82-2.63,1.22-3.22,1.22c-2.82,0-5.42-0.56-7.79-1.67
		c-2.37-1.11-4.82-1.81-7.34-2.11c-0.89-0.89-1.41-1.85-1.56-2.89c-0.15-1.04-0.89-2.41-2.23-4.12c-1.34-1.7-2-4.04-2-7.01
		l0.89-4.23c0-0.59-0.37-1.33-1.11-2.23c-0.74-0.89-1.11-1.63-1.11-2.23c0-0.59,0.15-1.04,0.44-1.33c0.3-0.3,0.45-0.74,0.45-1.34
		c0-0.74-0.15-1.56-0.45-2.45c-0.3-0.89-0.44-1.63-0.44-2.23l1.33-10.9c0-0.89-0.3-1.34-0.89-1.34c-0.59,0-1.67,0.74-3.23,2.23
		c-1.56,1.49-3.38,2.23-5.45,2.23c-1.19,0.89-2.15,2.75-2.9,5.56c-1.19,1.48-2.67,2.82-4.45,4.01l-0.89,1.33
		c-0.3,1.04-1.41,1.89-3.34,2.56c-1.93,0.67-3.27,1.52-4.01,2.56l-2.23,2.23l-4.23-0.45c-0.3,0.3-1.12,1.6-2.45,3.89
		c-1.34,2.3-3.04,4.19-5.12,5.67l-16.92,13.8c-1.78,1.19-4.38,2.67-7.79,4.45l-1.34,1.34c-11.87,7.87-20.25,11.79-25.15,11.79
		c-4.01,0-8.68-1.11-14.02-3.34c-5.34-2.23-8.23-4.9-8.68-8.01l-2.23-9.12c-1.34-2.08-2-4.97-2-8.68c0-1.78,0.15-2.97,0.44-3.56
		v-1.33l-0.44-7.34c0-1.78,1.41-2.67,4.23-2.67l-0.44-6.01c0-0.59,1.3-2.93,3.89-7.01c2.59-4.08,4.34-6.42,5.23-7.01l2.23-2.89
		c-0.15-1.78,0.89-3.67,3.12-5.67c2.23-2,4.01-4.04,5.35-6.12c1.33-2.08,3.86-4.37,7.58-6.9l6.68-6.68
		c5.2-5.19,10.84-9.35,16.93-12.46c0.89-0.3,2.71-1.78,5.46-4.45s5.87-4.63,9.36-5.9c3.49-1.26,6.91-2.85,10.25-4.78
		c3.34-1.93,5.98-2.89,7.91-2.89h1.78c0.59,0,4.53-1.85,11.81-5.56h1.34c0.59,0,2,0.59,4.23,1.78h0.45l3.57-1.78
		c0.59-0.3,1.34-0.45,2.23-0.45c9.21,0,14.26,6.38,15.15,19.14c0.3,2.67,1.04,4.01,2.23,4.01c1.48,0,3.6-2.71,6.35-8.12
		c2.75-5.41,8.57-8.12,17.48-8.12c6.38,0,9.57,4.08,9.57,12.24c0,9.65-4.3,18.77-12.91,27.37c-0.59,1.19-1.04,2.52-1.33,4.01
		l-3.12,9.12V921c0,0.89-0.63,2.11-1.89,3.67c-1.26,1.56-1.89,2.93-1.89,4.12l0.44,5.56l-0.89,6.23c0,2.82,0.52,4.67,1.55,5.56
		c4.73-1.19,8.17-3.15,10.32-5.9c2.15-2.74,3.66-4.26,4.55-4.56l2.22-0.89C684.03,932.57,685.58,930.72,687.35,929.23z
		 M613.46,929.23c0.59-3.26,2.41-5.75,5.46-7.46c3.04-1.7,4.86-3.45,5.45-5.23c2.82-2.08,6.86-5.79,12.13-11.13s7.9-8.6,7.9-9.79
		c0-0.45-0.3-0.67-0.89-0.67h-0.45l-1.78,1.11l-4.01-0.45l-4.23,0.45l-3.12-1.56l-2.89,0.45l-4.45-0.89c-2.38,0-4.42,0.48-6.12,1.45
		c-1.71,0.97-4.97,2.04-9.8,3.23c-4.82,1.19-9.16,3.23-13.02,6.12c-3.86,2.89-6.68,4.34-8.46,4.34c-1.04,2.23-4.53,5.42-10.46,9.57
		c-3.56,1.19-5.87,3.78-6.9,7.79c-3.86,3.12-5.79,4.9-5.79,5.34l-1.56,3.78c-1.19,1.04-2.67,1.89-4.45,2.56
		c-1.78,0.67-2.82,2.23-3.12,4.67c-0.3,2.45-1.3,4.67-3,6.68c-1.71,2-2.56,3.6-2.56,4.79c0,7.27,1.41,10.9,4.23,10.9
		c1.19,0,3.67-0.78,7.46-2.34c3.78-1.56,5.97-2.63,6.57-3.23c0.59-0.59,1.78-1.19,3.56-1.78l4.23-2.23c0.59-0.59,1.26-0.96,2-1.11
		c0.74-0.15,1.48-0.63,2.23-1.45c0.74-0.81,2.08-1.7,4.01-2.67c1.93-0.96,3.41-2.26,4.45-3.89c2.52-1.48,6.6-3.78,12.24-6.9
		l4.67-3.56c3.26-1.48,5.26-2.74,6.01-3.78C609.74,931.31,611.23,930.27,613.46,929.23z"/>
	<path class="st1" d="M909.02,801.72l5.79-5.12c4.3-3.56,7.04-5.34,8.23-5.34c0.59-1.63,3.18-4.37,7.79-8.23
		c1.78-0.29,3.6-1.74,5.45-4.34c1.85-2.59,3.82-4.12,5.89-4.56c2.08-0.45,4.37-2.08,6.9-4.9c2.52-2.82,6-5.04,10.46-6.68l2.23-2
		c3.41-2.67,5.86-4.01,7.34-4.01l48.74-20.92c1.33-0.59,4.41,0.48,9.24,3.23c4.82,2.75,7.23,7.09,7.23,13.02
		c0,9.2-2,14.54-6.01,16.02c0.3,0.59,0.45,1.33,0.45,2.23c0,1.78-2.23,6.27-6.68,13.46c-4.45,7.2-7.27,11.54-8.46,13.02
		c-1.19,1.49-2.08,3.49-2.67,6.01l-2.22,4.01c0,1.49-0.89,3.56-2.67,6.23l-4.67,8.01c-4.16,5.64-6.53,10.61-7.12,14.91
		c0,0.3-0.97,1.56-2.89,3.78l-3.56,5.79c-1.19,6.38-2.86,10.13-5.01,11.24c-2.15,1.11-3.23,2.11-3.23,3c0,3.41-0.89,6.6-2.67,9.57
		l-10.01,27.15c-0.89,2.23-2.6,5.94-5.12,11.13l-1.33,5.79l-4.45,8.23v6.45l-1.56,2.67c-0.59,0.89-1.19,3.08-1.78,6.57
		c-0.59,3.49-1.41,6.31-2.45,8.46c-1.04,2.15-1.56,3.82-1.56,5.01v2.89l0.44,3.56c0,0.59-0.3,1.63-0.89,3.12
		c0.3,1.63,0.45,3.49,0.45,5.56c0,0.89,0.29,1.78,0.89,2.67l0.89-1.34c1.48-0.29,3-1.37,4.56-3.23c1.56-1.85,3-3.15,4.34-3.89
		c1.33-0.74,2.45-2.48,3.34-5.23c0.89-2.74,2.3-4.41,4.23-5.01c5.49-5.49,8.54-9.12,9.13-10.9l12.7-20.92l7.8-10.46
		c0-3.26,2.6-6.9,7.8-10.9c2.38-3.71,4.01-6.57,4.9-8.57c0.89-2,1.78-3,2.67-3c1.63,0,2.75,0.48,3.34,1.45
		c0.59,0.97,1.04,1.45,1.34,1.45c1.19,0,1.78-0.81,1.78-2.45c0-2.08-0.89-3.71-2.67-4.9c-0.3,0-0.45-0.3-0.45-0.89
		c0-3.71,1.6-7.68,4.79-11.91c3.19-4.23,5.38-7.79,6.57-10.68c1.19-2.89,4.09-7.16,8.69-12.8c4.6-5.64,7.42-9.75,8.46-12.35
		c1.04-2.59,2.45-3.9,4.24-3.9h0.89c2.82-2.67,5.27-4.01,7.35-4.01c0.59,0,1.04,0.89,1.33,2.67c1.93-1.19,2.89-2.08,2.89-2.67
		c0-1.48-1-2.45-3-2.89c-2-0.45-3-1.34-3-2.67c0-0.89,2.88-4.75,8.65-11.57c5.77-6.82,8.95-10.24,9.54-10.24s1.33,0.45,2.22,1.34
		l1.33-0.89v-3.56c0-0.59,1.11-2,3.33-4.23c0-2.37,0.96-4.01,2.88-4.9c1.92-0.89,2.89-1.48,2.89-1.78l-0.89-3.34h0.45
		c1.93-1.19,3.18-2.08,3.78-2.67l5.34,0.44c1.19,0,2.08-1.04,2.67-3.12c-2.38-0.74-3.56-1.7-3.56-2.89c0-1.19,1.15-2.67,3.45-4.45
		c2.3-1.78,3.45-3.56,3.45-5.34c0-1.63,3.48-5.34,10.46-11.13c2.08-2.37,4.12-4.86,6.12-7.46c2-2.59,6.04-5.6,12.13-9.01
		c0.45-3.71,1.34-5.79,2.67-6.23l5.56,0.45l2.67-1.78l-0.45-4.67c6.38-4.15,10.53-6.71,12.46-7.68c1.93-0.96,3.56-2.19,4.9-3.67
		c6.82-4.6,11.5-6.9,14.02-6.9l4.67,0.89c2.52-0.89,4.67-1.33,6.45-1.33c1.48,0,2.67,0.22,3.56,0.67c0.89,0.45,2.45,0.93,4.67,1.45
		c2.23,0.52,4.19,2.67,5.9,6.45c1.7,3.78,2.56,6.86,2.56,9.24l0.45,7.34c0,4.16-1.89,8.61-5.67,13.35
		c-3.78,4.75-6.86,7.12-9.24,7.12l-2.89-0.45c-2.67,1.19-5.6,2.08-8.79,2.67c-3.19,0.59-6.34,2.15-9.46,4.67l-1.34,0.89h-2.67
		l-0.45,0.89v1.33c-0.74,0.59-1.78,1.71-3.12,3.34c-1.34,1.63-3.45,3.6-6.34,5.9c-2.89,2.3-5.67,4.97-8.35,8.01
		c-2.67,3.04-5.86,5.56-9.57,7.57c-3.71,2-6.16,4.71-7.34,8.12l-0.89,0.89h-2.22c-2.82,3.26-5.34,6.34-7.57,9.24
		c-2.22,2.89-4.19,4.93-5.9,6.12c-1.71,1.19-2.64,2.11-2.78,2.78c-0.15,0.67-1.26,2.04-3.34,4.12l-2.23,4.45
		c-2.23,1.04-4.79,3.53-7.68,7.46c-2.89,3.93-4.64,6.2-5.23,6.79l-1.78,2.23l-3.56,2.23c-2.52,2.52-4.23,4.38-5.12,5.56
		c0,2.82-1.49,4.67-4.45,5.56c-1.48,1.34-2.67,3.93-3.56,7.79c-0.89,3.86-1.86,5.79-2.89,5.79l-4.01-0.44
		c-0.45,0.3-1.26,1.48-2.45,3.56l-1.33,2c-0.89,0.89-1.75,2.45-2.56,4.67c-0.82,2.23-2.56,3.86-5.23,4.9
		c-1.78,4.45-2.82,6.68-3.12,6.68l-2.23,1.78c-0.59,1.93-0.89,3.04-0.89,3.34c-2.67,3.12-4.86,5.45-6.56,7.01
		c-1.71,1.56-2.41,2.56-2.11,3c-0.59,0.89-1.37,1.71-2.34,2.45c-0.97,0.74-1.75,2.11-2.34,4.12c-0.59,2-1.78,3.15-3.56,3.45
		l-1.33,3.12v2.89c-0.59,0.45-3.49,4.08-8.68,10.91l-7.79,13.13l-17.36,23.37c-3.56,0-5.34,2.38-5.34,7.12l-5.12,6.45
		c-1.48,1.48-2.38,3.08-2.67,4.78c-0.3,1.71-1.86,2.56-4.67,2.56c-4.6,5.49-10.02,8.23-16.25,8.23c-1.63,0-2.89,0.15-3.78,0.45
		l-6.9-4.67c-2.08-1.33-3.49-2.41-4.23-3.23c-0.74-0.81-1.26-1.22-1.56-1.22c-2.97-1.33-6.08-6.49-9.35-15.47
		c-3.27-8.97-4.9-16.43-4.9-22.37c0-0.89,0.81-4.9,2.45-12.02v-0.45c0-0.29-0.33-0.96-1-2c-0.67-1.04-1-2-1-2.89
		c0-1.19,0.56-2.19,1.67-3c1.11-0.81,1.67-1.67,1.67-2.56c0-4.15,0.74-7.04,2.22-8.68c0.89-2.67,1.34-4.75,1.34-6.23l-0.89-3.34
		c0-1.19,0.59-2.97,1.78-5.34c2.23-1.04,3.34-2.15,3.34-3.34l-0.44-6.23c0-2.67,1.63-4.23,4.9-4.67c-0.3-1.48-0.45-2.67-0.45-3.56
		c0-1.48,0.37-2.93,1.11-4.34c0.74-1.41,1.19-3.15,1.33-5.23c0.15-2.08,0.78-3.6,1.89-4.56c1.11-0.96,1.96-2.85,2.56-5.67
		c0.59-2.82,2.37-6.38,5.34-10.68c2.97-4.3,4.75-7.53,5.34-9.68c0.59-2.15,1.11-3.23,1.56-3.23c3.41,0,5.12-0.59,5.12-1.78
		c0-1.19-0.97-2.37-2.89-3.56l-0.44-1.34c0-3.12,2.3-6.6,6.9-10.46c0-4.3,1.33-6.45,4.01-6.45l-1.33-3.56
		c0-1.93,1.37-5.3,4.12-10.13c2.74-4.82,4.86-10.27,6.34-16.36l2.45-3.34c1.19-1.48,1.78-2.52,1.78-3.12l-0.45-2.67
		c1.48-3.71,2.23-5.71,2.23-6.01c0-1.63-0.59-2.82-1.78-3.56c-4.6,0.59-8.09,2.67-10.46,6.23l-0.89,1.11h-4.23
		c-2.38,0-5.42,2.52-9.12,7.57l-6.45,5.12c-6.83,5.05-12.28,9.24-16.36,12.57c-4.08,3.34-6.86,6.2-8.34,8.57l-3.34,5.12
		c-0.74,1.33-1.86,5.2-3.34,11.57c-1.48,6.38-5.56,9.57-12.23,9.57c-9.79,0-14.68-5.04-14.68-15.13
		C897.01,813.51,901.01,808.39,909.02,801.72z"/>
	<path class="st1" d="M1081.6,909.65l3.57-3.12h1.33c1.04,0,2.6-1.11,4.68-3.34l2.23-0.89c2.97-4.45,5.57-7.04,7.8-7.79l3.57-2.67
		c0.59-0.59,1.45-1.11,2.56-1.56c1.11-0.45,2.9-1.89,5.35-4.34c2.45-2.45,4.42-3.67,5.9-3.67c1.49,0,2.67,0.15,3.56,0.45
		c0.89-1.78,2.67-3.52,5.34-5.23c2.67-1.7,4.83-3.75,6.46-6.12l2.9-1.34c2.38-1.19,4.49-2.71,6.35-4.56
		c1.86-1.85,4.27-2.78,7.24-2.78c4.3,0,8.8,2.19,13.47,6.57c4.67,4.38,7.01,8.57,7.01,12.57l-3.78,17.36
		c-2.52,12.76-5.34,19.44-8.46,20.03l-0.89,4.67c-2.08,1.48-3.12,2.67-3.12,3.56l1.34,5.34c0,0.74-0.82,1.86-2.45,3.34
		c-0.3,0-0.45,0.45-0.45,1.34v9.12c0,1.63-1.04,2.97-3.12,4.01c0.29,0.3,0.74,0.59,1.33,0.89c0.89-0.89,2.89-1.33,6.01-1.33
		l3.56,0.45l4.89-4.9c1.04-0.29,2.48-1,4.33-2.11c1.85-1.11,5-2.56,9.45-4.34l29.12-22.25c4-4.01,7.03-6.01,9.11-6.01
		c2.22,0,3.33,1.41,3.33,4.23c0,3.27-0.63,5.97-1.89,8.12c-1.26,2.15-2.41,4.75-3.45,7.79c-1.04,3.04-2.26,5.16-3.67,6.34
		c-1.41,1.19-2.56,2.49-3.45,3.89c-0.89,1.41-3.3,3.45-7.23,6.12c-3.93,2.67-7.27,5.38-10.01,8.12c-2.74,2.75-5,4.71-6.78,5.9
		l-9.57,6.9l-1.33,2.22c-0.3,0.3-1.67,0.93-4.12,1.89c-2.45,0.97-4.64,2.19-6.57,3.67l-4,2.22c-0.89,0.59-2.34,0.97-4.34,1.11
		c-2,0.15-3.75,1-5.23,2.56c-1.49,1.56-2.67,2.34-3.56,2.34l-3.34-0.44l-4.45,1.33c-2.52,0-5.6-1.52-9.24-4.56
		c-3.64-3.04-5.45-6.27-5.45-9.68v-1.33l0.44-3.12c0-0.59-0.44-2.11-1.33-4.56c-0.89-2.45-1.33-3.82-1.33-4.12l0.45-3.12l-0.45-1.34
		c0-4.01,0.29-6.53,0.89-7.57c0.59-1.04,1.04-2.48,1.34-4.34c0.29-1.85,0.59-3.37,0.89-4.56l1.11-5.56
		c0.59-1.78,1.33-2.97,2.22-3.56c0.3-1.19,0.89-3.19,1.78-6.01l0.89-4.01l2.23-3.12c1.19-1.19,1.89-2.78,2.11-4.78s1-4.12,2.34-6.34
		c1.33-2.23,2-3.56,2-4.01c0-1.78-0.89-2.67-2.67-2.67c-0.59,0-2.45,1.19-5.56,3.56l-4.01-1.34c-0.3,0-1.11,0.74-2.45,2.23
		c0,0.59-0.67,1.04-2,1.34c-1.34,0.3-2.6,1.41-3.78,3.34l-1.78,0.45l-2.89-1.34h-0.89c-1.48,0-2.38,1.63-2.67,4.9
		c-1.63,2.38-3.79,3.93-6.46,4.67l-4.9,1.34c-1.63,0.59-2.82,1.93-3.56,4.01c-0.74,2.08-2.23,3.97-4.45,5.67
		c-2.23,1.71-3.71,2.56-4.45,2.56c-4.16,0-6.23-2.3-6.23-6.9l1.78-10.46L1081.6,909.65z M1177.74,798.38l-1.33-8.68v-1.33
		c0-6.97,2.37-10.83,7.12-11.57c1.04-0.15,4.15-1.11,9.35-2.89c2.67,0.59,5.45,2.93,8.35,7.01c2.89,4.08,4.34,7.68,4.34,10.79
		c0,0.3-0.22,0.97-0.67,2c-0.45,1.04-0.74,3-0.89,5.9c-0.15,2.89-1.6,5.42-4.34,7.57c-2.75,2.15-5.67,3.23-8.79,3.23
		c-2.08,0-4.71-1.45-7.9-4.34C1179.78,803.16,1178.04,800.6,1177.74,798.38z"/>
	<path class="st1" d="M1255.24,880.5l3.12-5.56c0.89-1.33,2.04-2.71,3.45-4.12c1.41-1.41,2.93-5.04,4.57-10.9
		c1.63-5.86,3.45-9.9,5.46-12.13s4.94-3.34,8.8-3.34c2.23,0,5.16,1.08,8.8,3.23c3.64,2.15,7.2,8.64,10.69,19.47
		c3.49,10.83,5.24,18.47,5.24,22.92c0,1.78,0.52,4.04,1.56,6.79c1.04,2.75,1.71,4.86,2.01,6.34c-1.19,2.52-1.78,3.93-1.78,4.23
		l0.45,9.12l-2.67,7.34v5.34c-1.78,2.97-2.67,4.82-2.67,5.56c0,0.89,0.29,1.78,0.89,2.67c6.96-2.97,11.19-5.38,12.67-7.23
		c1.48-1.85,2.92-3,4.33-3.45c1.41-0.45,3.74-2.37,7-5.79l4.22-2.23c1.48-1.78,2.74-3.37,3.78-4.78c1.04-1.41,2.26-2.41,3.67-3
		c1.41-0.59,3.07-1.63,5-3.12c1.93-1.48,4.74-3.19,8.45-5.12l2.22-2.67c2.22-2.52,4.85-4.52,7.89-6.01c3.04-1.48,4.7-2.23,5-2.23
		c1.04,0,2.11,1.37,3.22,4.12c1.11,2.75,1.67,5.45,1.67,8.12c0,2.52-1.45,5.01-4.34,7.46c-2.89,2.45-4.86,4.27-5.89,5.45
		c-1.04,1.19-3.41,2.23-7.11,3.12c-0.3,0.15-2.74,3.19-7.34,9.12l-4.45,2.67l-2.22,2.89c-0.3,0.59-2.3,1.19-6,1.78
		c-0.15,0-0.48,0.74-1,2.23c-0.52,1.48-2.11,2.52-4.78,3.12c-5.33,4.9-8.08,7.64-8.22,8.23l-4.67,0.89
		c-0.89,2.82-1.63,4.53-2.22,5.12c-3.56,0.89-5.56,2.38-6.01,4.45c-0.44,0.3-1.19,0.59-2.22,0.89l-0.89,0.67
		c-3.41,2.67-6.74,4.3-10,4.9l-5.11,1.34l-1.78,2.67c0,0.74-1.82,1.71-5.45,2.89c-3.63,1.19-6.34,2.67-8.11,4.45l-3.78,2.89
		c-4.6,1.78-7.49,3.42-8.67,4.9h-3.12c-2.08,0-5.34,1.52-9.78,4.56c-4.45,3.04-8,4.56-10.67,4.56c-8.6,0-14.49-1.08-17.67-3.23
		c-3.18-2.15-5.81-4.82-7.89-8.01c-2.07-3.19-3.96-5.75-5.67-7.68c-1.7-1.93-2.56-3.48-2.56-4.67c0-1.04,0.71-2.08,2.11-3.12
		c1.41-1.04,2.93-3.15,4.56-6.34c1.63-3.19,5.78-5.23,12.45-6.12c0.3,0,1.37-0.45,3.22-1.33c1.85-0.89,3.37-1.34,4.55-1.34
		c1.48,0,3.33,1.34,5.56,4.01c0,0.3,0.3,0.45,0.89,0.45l3.56-0.45c1.63,1.19,2.74,1.78,3.33,1.78c3.55,0,7.33-1.78,11.34-5.34
		l0.89-0.45h1.78c0.45,0,1.19-1.26,2.22-3.78l3.78-7.79l7.78-10.01v-2.22c0-0.45,0.45-1.78,1.33-4.01v-3.34
		c0-1.33,0.89-2.19,2.67-2.56c1.78-0.37,2.67-1.3,2.67-2.78l-0.44-1.78c-1.19-1.63-1.78-2.89-1.78-3.78l2.22-4.45l-0.44-4.67
		l0.89-1.78c-0.59-2.08-0.89-3.26-0.89-3.56l0.89-5.56c0-0.15-0.41-1.56-1.23-4.23c-0.82-2.67-1.45-4.01-1.89-4.01
		c-0.89,0-3.71,2.3-8.47,6.9c-4.75,4.6-7.58,7.87-8.47,9.79c-0.89,1.93-2.79,3.67-5.68,5.23c-2.9,1.56-4.86,3.3-5.9,5.23
		c-1.04,1.93-2.3,3.04-3.79,3.34l-14.93,12.02l-16.26,12.02c-1.19,1.34-1.93,2-2.23,2c-5.49,0-8.24-3.04-8.24-9.12
		c0-1.93,1.12-5.41,3.34-10.46c1.04-0.59,1.82-1.04,2.34-1.34c0.53-0.29,0.78-0.52,0.78-0.67c0-0.15-0.15-0.22-0.45-0.22l1.33,0.89
		h0.45c5.5-3.71,9.06-5.86,10.69-6.45c1.63-0.59,3.12-2.23,4.46-4.9l9.36-6.68c2.38-1.78,6.01-5.04,10.92-9.79
		C1250.79,886.21,1253.91,882.72,1255.24,880.5z"/>
	<path class="st1" d="M1406.63,785.69l3.12-0.89l2.23-2.22h0.45l2,0.89h0.45c3.56,0,6.72-0.7,9.49-2.11c2.76-1.41,5.08-2.41,6.96-3
		c1.88-0.59,3.04-1.04,3.49-1.34c0.45-0.29,0.82-0.44,1.12-0.44l3.6,0.44c1.19,0,2.78-2.11,4.78-6.34c2-4.23,4.26-7.31,6.78-9.24
		c2.52-1.93,5.04-5.56,7.56-10.9c0.59-0.74,1.26-1.89,2-3.45c0.74-1.56,1.33-2.34,1.78-2.34c2.22,0,4-1.41,5.34-4.23
		c4.44-5.19,8.08-7.79,10.89-7.79c3.71,0,6.3,3.56,7.79,10.68l2.23,8.46c0,0.15-0.37,1.22-1.11,3.23c-0.74,2-1.08,4.01-1,6.01
		c0.07,2,0,3.34-0.22,4.01c-0.22,0.67-0.33,1.45-0.33,2.34c0,1.19,1.26,1.78,3.78,1.78c0.89,0,2.52-0.59,4.9-1.78l1.33-0.44
		c1.48,0.89,2.74,1.33,3.78,1.33c0.3,0,2.41-0.74,6.34-2.23c3.93-1.48,6.42-2.3,7.46-2.45c1.04-0.15,2.82-0.74,5.34-1.78h2.67
		l1.78,0.67c0.59,0,1.82-0.63,3.67-1.89c1.85-1.26,5.38-2.04,10.57-2.34l3.12-1.33h0.89c4.9,0,7.34,2.15,7.34,6.45
		c0,0.89-0.71,2.45-2.11,4.67c-1.41,2.23-2.56,4.75-3.45,7.57l-10.24,12.91c-3.42,4.45-6.83,6.68-10.24,6.68
		c-0.59,0-2.45-2-5.56-6.01c0-0.3-0.3-0.45-0.89-0.45c-1.48,0-3.04,0.3-4.67,0.89c-1.63,0.59-2.97,0.89-4.01,0.89
		c-0.45,0-4.38,1.11-11.79,3.34l-5.34,0.89c-0.59,0-2,0.3-4.23,0.89l-11.36,2.23c-3.86,1.93-6.91,5.56-9.13,10.9
		c0,0.3-0.74,0.97-2.23,2l-10.02,18.25c-3.27,0.89-5.43,2.82-6.46,5.79l-0.89,1.33c-1.63,0.3-3.12,1.22-4.46,2.78
		c-1.34,1.56-2.6,2.78-3.79,3.67l-4.01,6.01c-1.64,2.08-3.27,4.34-4.91,6.79c-1.63,2.45-2.82,5.05-3.57,7.79
		c-0.74,2.75-1.34,4.34-1.78,4.78c-0.45,0.45-0.67,1.26-0.67,2.45l-0.67,1.78c-1.79,1.78-2.68,3.78-2.68,6.01l0.89,3.56
		c-2.08,7.12-3.12,10.91-3.12,11.35c0,0.3,0.15,1.11,0.45,2.45v1.34c0,3.26-1.19,7.34-3.57,12.24l0.45,3.56l-1.34,10.01
		c0,1.33,0.45,3.78,1.34,7.34c-0.6,0.59-0.89,1.04-0.89,1.34c0,4.16,2.19,8.72,6.58,13.69c4.38,4.97,6.58,12.72,6.58,23.26
		c0,0.89-0.23,2.19-0.67,3.89c-0.45,1.71-0.74,3.56-0.89,5.56c-0.15,2-1.3,3.97-3.46,5.9c-2.16,1.93-3.97,2.89-5.46,2.89
		c-7.88,0-13.75-5.71-17.62-17.14c-3.87-11.42-5.8-18.77-5.8-22.03l0.45-8.68l-1.34-4.45l1.34-19.58l-0.89-4.67l5.13-19.14v-6.9
		c0-0.29,1.04-1.48,3.12-3.56c0-0.3-0.3-0.45-0.89-0.45c-0.89,0-2.08,0.89-3.57,2.67c-1.49,1.78-3.34,3.49-5.57,5.12l-1.78,3.12
		c-0.3-0.3-0.89-0.59-1.78-0.89c-0.74,0.3-3.2,3.78-7.36,10.46c-3.12,0.44-5.57,2.23-7.36,5.34s-4.24,4.67-7.35,4.67l-0.89,0.45
		c-0.59,4.3-2.67,6.45-6.24,6.45l-0.89,0.45c-2.23,5.04-4.53,7.49-6.91,7.34c-1.49,4.45-5.13,7.49-10.92,9.12
		c-0.89,1.78-2.19,3.12-3.9,4.01c-1.71,0.89-2.93,1.71-3.68,2.45c-0.74,0.74-1.41,1.11-2.01,1.11c-1.93,0-2.9-2.08-2.9-6.23
		c0-1.19,0.48-2.48,1.45-3.89c0.97-1.41,1.45-2.41,1.45-3c0-0.3-0.74-1.19-2.23-2.67c0-4.6,1.19-7.49,3.56-8.68
		c2.38-1.19,4.16-2.89,5.35-5.12c0.74-1.78,2.23-3.04,4.46-3.78c2.23-0.74,3.34-1.7,3.34-2.89c0-1.04,1.93-3.12,5.79-6.23
		c3.86-3.12,6.68-5.82,8.46-8.12c1.78-2.3,3.27-3.45,4.46-3.45l0.89-0.89c0.3-3.71,1.71-5.56,4.24-5.56l2.23-1.34l0.45-1.78
		l1.34-0.89h1.78l1.11-0.89c0.29-3.71,2.04-6.6,5.23-8.68c3.19-2.08,9.02-7.9,17.49-17.47s13.22-15.69,14.26-18.36
		c1.04-2.67,2.94-6.27,5.68-10.79c2.75-4.52,4.27-8.79,4.57-12.8c-0.3-0.59-0.74-1.19-1.33-1.78l-9.57,4.67c0-0.45-1.48-1.11-4.45-2
		c-2.23,1.33-3.86,2.67-4.9,4.01c-1.04,1.33-1.86,2-2.45,2l-3.12-0.45l-9.79,1.11c-8.76,0.74-15.36,2.52-19.81,5.34l-9.12,2.67h-2
		c-1.19,0-2.97,0.74-5.34,2.23l-5.12-0.45c-4.75,2.52-8.23,3.78-10.46,3.78c-0.3,0-1.19-0.15-2.67-0.44l-22.7,6.23
		c-1.78,0.59-5.79,3.64-12.02,9.13l-1.78,0.44c-1.48,0-3.23-1.67-5.23-5.01s-3-6.34-3-9.01c0-14.69,12.61-23.22,37.83-25.59
		l9.13-3.56h0.45l2.45,0.89h0.89c0.89,0,2.3-0.56,4.23-1.67c1.93-1.11,6.23-2.48,12.91-4.12l9.12-2.45l2.89,0.45
		c1.48,0,3.15-0.59,5.01-1.78c1.85-1.19,4.67-2.04,8.46-2.56c3.78-0.52,6.42-1.07,7.9-1.67l3.56-0.89c0.59,0,1.82-0.52,3.67-1.56
		c1.85-1.04,4.26-1.56,7.23-1.56C1403.74,784.8,1404.85,785.1,1406.63,785.69z"/>
	<path class="st1" d="M1637.17,929.23l3.55-3.12c2.22,0,3.55-1,3.99-3c0.44-2,2.03-3.6,4.77-4.79c2.74-1.19,5.29-3.59,7.66-7.23
		c2.37-3.63,4.81-5.45,7.32-5.45c0.89,0,1.92,0.74,3.1,2.23c1.18,1.48,1.78,2.67,1.78,3.56c0,4.9-1.48,9.94-4.45,15.13l-0.89,6.23
		l-1.56,2.89c-2.23,1.19-3.67,2.45-4.34,3.78c-0.67,1.33-2.41,2.97-5.23,4.9l-2.23,3.12c-3.27,1.04-5.45,2.75-6.57,5.12
		c-1.11,2.38-2.67,3.71-4.67,4.01c-2,0.3-4.19,1.78-6.56,4.45c-1.48,0.74-3.26,1.41-5.34,2l-0.45,2.23
		c-1.48,1.49-3.82,2.67-7.01,3.56c-3.19,0.89-5.56,1.75-7.12,2.56c-1.56,0.82-2.63,1.22-3.22,1.22c-2.82,0-5.42-0.56-7.79-1.67
		c-2.37-1.11-4.82-1.81-7.34-2.11c-0.89-0.89-1.41-1.85-1.56-2.89c-0.15-1.04-0.89-2.41-2.23-4.12c-1.33-1.7-2-4.04-2-7.01
		l0.89-4.23c0-0.59-0.37-1.33-1.11-2.23c-0.74-0.89-1.11-1.63-1.11-2.23c0-0.59,0.15-1.04,0.45-1.33c0.29-0.3,0.44-0.74,0.44-1.34
		c0-0.74-0.15-1.56-0.44-2.45c-0.3-0.89-0.45-1.63-0.45-2.23l1.33-10.9c0-0.89-0.3-1.34-0.89-1.34c-0.59,0-1.67,0.74-3.23,2.23
		c-1.56,1.49-3.38,2.23-5.45,2.23c-1.19,0.89-2.15,2.75-2.9,5.56c-1.19,1.48-2.67,2.82-4.45,4.01l-0.89,1.33
		c-0.3,1.04-1.41,1.89-3.34,2.56c-1.93,0.67-3.26,1.52-4,2.56l-2.23,2.23l-4.23-0.45c-0.3,0.3-1.12,1.6-2.45,3.89
		c-1.34,2.3-3.04,4.19-5.12,5.67l-16.92,13.8c-1.78,1.19-4.38,2.67-7.79,4.45l-1.33,1.34c-11.87,7.87-20.25,11.79-25.15,11.79
		c-4.01,0-8.68-1.11-14.02-3.34s-8.23-4.9-8.68-8.01l-2.23-9.12c-1.34-2.08-2-4.97-2-8.68c0-1.78,0.15-2.97,0.45-3.56v-1.33
		l-0.45-7.34c0-1.78,1.41-2.67,4.23-2.67l-0.45-6.01c0-0.59,1.3-2.93,3.89-7.01c2.59-4.08,4.34-6.42,5.23-7.01l2.23-2.89
		c-0.15-1.78,0.89-3.67,3.12-5.67c2.23-2,4.01-4.04,5.35-6.12c1.34-2.08,3.86-4.37,7.58-6.9l6.68-6.68
		c5.2-5.19,10.84-9.35,16.93-12.46c0.89-0.3,2.71-1.78,5.46-4.45s5.87-4.63,9.36-5.9c3.49-1.26,6.91-2.85,10.25-4.78
		c3.34-1.93,5.98-2.89,7.91-2.89h1.78c0.59,0,4.53-1.85,11.81-5.56h1.34c0.59,0,2,0.59,4.23,1.78h0.44l3.57-1.78
		c0.59-0.3,1.33-0.45,2.23-0.45c9.21,0,14.26,6.38,15.15,19.14c0.3,2.67,1.04,4.01,2.23,4.01c1.48,0,3.6-2.71,6.35-8.12
		c2.75-5.41,8.57-8.12,17.48-8.12c6.38,0,9.57,4.08,9.57,12.24c0,9.65-4.3,18.77-12.91,27.37c-0.59,1.19-1.04,2.52-1.33,4.01
		l-3.12,9.12V921c0,0.89-0.63,2.11-1.89,3.67c-1.26,1.56-1.89,2.93-1.89,4.12l0.45,5.56l-0.89,6.23c0,2.82,0.52,4.67,1.55,5.56
		c4.73-1.19,8.17-3.15,10.32-5.9c2.15-2.74,3.66-4.26,4.55-4.56l2.22-0.89C1633.84,932.57,1635.4,930.72,1637.17,929.23z
		 M1563.27,929.23c0.59-3.26,2.41-5.75,5.46-7.46c3.04-1.7,4.86-3.45,5.45-5.23c2.82-2.08,6.86-5.79,12.13-11.13
		c5.27-5.34,7.9-8.6,7.9-9.79c0-0.45-0.3-0.67-0.89-0.67h-0.45l-1.78,1.11l-4.01-0.45l-4.23,0.45l-3.12-1.56l-2.89,0.45l-4.45-0.89
		c-2.38,0-4.42,0.48-6.12,1.45c-1.71,0.97-4.97,2.04-9.79,3.23c-4.82,1.19-9.16,3.23-13.02,6.12c-3.86,2.89-6.68,4.34-8.46,4.34
		c-1.04,2.23-4.53,5.42-10.46,9.57c-3.56,1.19-5.87,3.78-6.9,7.79c-3.86,3.12-5.79,4.9-5.79,5.34l-1.56,3.78
		c-1.19,1.04-2.67,1.89-4.45,2.56c-1.78,0.67-2.82,2.23-3.12,4.67c-0.3,2.45-1.3,4.67-3,6.68c-1.71,2-2.56,3.6-2.56,4.79
		c0,7.27,1.41,10.9,4.23,10.9c1.19,0,3.67-0.78,7.46-2.34c3.78-1.56,5.97-2.63,6.57-3.23c0.59-0.59,1.78-1.19,3.56-1.78l4.23-2.23
		c0.59-0.59,1.26-0.96,2-1.11c0.74-0.15,1.48-0.63,2.23-1.45c0.74-0.81,2.08-1.7,4.01-2.67c1.93-0.96,3.41-2.26,4.45-3.89
		c2.52-1.48,6.6-3.78,12.24-6.9l4.67-3.56c3.26-1.48,5.26-2.74,6.01-3.78C1559.56,931.31,1561.05,930.27,1563.27,929.23z"/>
</g>
<g>
	<path class="st2" d="M41.77,1105.17l5.79-5.12c4.3-3.56,7.04-5.34,8.23-5.34c0.59-1.63,3.19-4.37,7.79-8.23
		c1.78-0.29,3.6-1.74,5.45-4.34c1.85-2.59,3.82-4.12,5.89-4.56c2.08-0.45,4.37-2.08,6.9-4.9c2.52-2.82,6.01-5.04,10.46-6.68l2.23-2
		c3.41-2.67,5.86-4.01,7.34-4.01l48.74-20.92c1.33-0.59,4.41,0.48,9.24,3.23c4.82,2.75,7.23,7.09,7.23,13.02
		c0,9.2-2,14.54-6.01,16.02c0.3,0.59,0.44,1.33,0.44,2.23c0,1.78-2.23,6.27-6.68,13.46c-4.45,7.2-7.27,11.54-8.46,13.02
		c-1.19,1.49-2.08,3.49-2.67,6.01l-2.23,4.01c0,1.49-0.89,3.56-2.67,6.23l-4.67,8.01c-4.16,5.64-6.53,10.61-7.12,14.91
		c0,0.3-0.97,1.56-2.89,3.78l-3.56,5.79c-1.19,6.38-2.86,10.13-5.01,11.24c-2.15,1.11-3.23,2.11-3.23,3c0,3.41-0.89,6.6-2.67,9.57
		l-10.01,27.15c-0.89,2.23-2.6,5.94-5.12,11.13l-1.34,5.79l-4.45,8.23v6.45l-1.56,2.67c-0.59,0.89-1.19,3.08-1.78,6.57
		c-0.59,3.49-1.41,6.31-2.45,8.46c-1.04,2.15-1.56,3.82-1.56,5.01v2.89l0.45,3.56c0,0.59-0.3,1.63-0.89,3.12
		c0.3,1.63,0.44,3.49,0.44,5.56c0,0.89,0.3,1.78,0.89,2.67l0.89-1.34c1.48-0.29,3-1.37,4.56-3.23c1.56-1.85,3-3.15,4.34-3.89
		c1.34-0.74,2.45-2.48,3.34-5.23c0.89-2.74,2.3-4.41,4.23-5.01c5.49-5.49,8.54-9.12,9.13-10.9l12.7-20.92l7.8-10.46
		c0-3.26,2.6-6.9,7.8-10.9c2.38-3.71,4.01-6.57,4.9-8.57s1.78-3,2.67-3c1.63,0,2.75,0.48,3.34,1.45c0.59,0.97,1.04,1.45,1.34,1.45
		c1.19,0,1.78-0.81,1.78-2.45c0-2.08-0.89-3.71-2.67-4.9c-0.3,0-0.45-0.3-0.45-0.89c0-3.71,1.6-7.68,4.79-11.91
		c3.19-4.23,5.38-7.79,6.57-10.68c1.19-2.89,4.09-7.16,8.69-12.8c4.6-5.64,7.42-9.75,8.46-12.35c1.04-2.59,2.45-3.89,4.24-3.89h0.89
		c2.82-2.67,5.27-4.01,7.35-4.01c0.59,0,1.04,0.89,1.33,2.67c1.93-1.19,2.89-2.08,2.89-2.67c0-1.48-1-2.45-3-2.89
		c-2-0.45-3-1.34-3-2.67c0-0.89,2.88-4.75,8.66-11.57c5.77-6.82,8.95-10.24,9.54-10.24c0.59,0,1.33,0.45,2.22,1.34l1.33-0.89v-3.56
		c0-0.59,1.11-2,3.33-4.23c0-2.37,0.96-4.01,2.88-4.9c1.92-0.89,2.89-1.48,2.89-1.78l-0.89-3.34h0.44c1.93-1.19,3.19-2.08,3.78-2.67
		l5.34,0.44c1.19,0,2.08-1.04,2.67-3.12c-2.38-0.74-3.56-1.7-3.56-2.89c0-1.19,1.15-2.67,3.45-4.45c2.3-1.78,3.45-3.56,3.45-5.34
		c0-1.63,3.48-5.34,10.46-11.13c2.08-2.37,4.12-4.86,6.12-7.46c2-2.59,6.04-5.6,12.13-9.01c0.44-3.71,1.33-5.79,2.67-6.23l5.56,0.45
		l2.67-1.78l-0.44-4.67c6.38-4.15,10.53-6.71,12.46-7.68c1.93-0.96,3.56-2.19,4.9-3.67c6.82-4.6,11.5-6.9,14.02-6.9l4.67,0.89
		c2.52-0.89,4.67-1.33,6.45-1.33c1.48,0,2.67,0.22,3.56,0.67c0.89,0.44,2.45,0.93,4.67,1.45c2.23,0.52,4.19,2.67,5.9,6.45
		c1.7,3.78,2.56,6.86,2.56,9.24l0.44,7.34c0,4.16-1.89,8.61-5.67,13.35c-3.78,4.75-6.86,7.12-9.24,7.12l-2.89-0.45
		c-2.67,1.19-5.6,2.08-8.79,2.67c-3.19,0.59-6.34,2.15-9.46,4.67l-1.34,0.89h-2.67l-0.45,0.89v1.33c-0.74,0.59-1.78,1.71-3.12,3.34
		c-1.33,1.63-3.45,3.6-6.34,5.9c-2.89,2.3-5.67,4.97-8.35,8.01c-2.67,3.04-5.86,5.56-9.57,7.57c-3.71,2-6.16,4.71-7.34,8.12
		l-0.89,0.89h-2.23c-2.82,3.26-5.34,6.34-7.57,9.24c-2.23,2.89-4.19,4.93-5.9,6.12c-1.71,1.19-2.64,2.11-2.78,2.78
		c-0.15,0.67-1.26,2.04-3.34,4.12l-2.23,4.45c-2.23,1.04-4.78,3.53-7.68,7.46c-2.89,3.93-4.64,6.2-5.23,6.79l-1.78,2.23l-3.56,2.23
		c-2.52,2.52-4.23,4.38-5.12,5.56c0,2.82-1.48,4.67-4.45,5.56c-1.48,1.34-2.67,3.93-3.56,7.79c-0.89,3.86-1.86,5.79-2.89,5.79
		l-4.01-0.44c-0.44,0.3-1.26,1.48-2.45,3.56l-1.34,2c-0.89,0.89-1.75,2.45-2.56,4.67c-0.82,2.23-2.56,3.86-5.23,4.9
		c-1.78,4.45-2.82,6.68-3.12,6.68l-2.23,1.78c-0.59,1.93-0.89,3.04-0.89,3.34c-2.67,3.12-4.86,5.45-6.56,7.01
		c-1.71,1.56-2.41,2.56-2.11,3c-0.59,0.89-1.37,1.71-2.34,2.45c-0.97,0.74-1.75,2.11-2.34,4.12c-0.59,2-1.78,3.15-3.56,3.45
		l-1.34,3.12v2.89c-0.59,0.45-3.49,4.08-8.68,10.91l-7.79,13.13l-17.36,23.37c-3.56,0-5.34,2.38-5.34,7.12l-5.12,6.45
		c-1.48,1.48-2.38,3.08-2.67,4.78c-0.3,1.71-1.86,2.56-4.67,2.56c-4.6,5.49-10.02,8.23-16.25,8.23c-1.63,0-2.89,0.15-3.78,0.45
		l-6.9-4.67c-2.08-1.33-3.49-2.41-4.23-3.23c-0.74-0.81-1.26-1.22-1.56-1.22c-2.97-1.33-6.08-6.49-9.35-15.47
		c-3.27-8.97-4.9-16.43-4.9-22.37c0-0.89,0.81-4.9,2.45-12.02v-0.45c0-0.29-0.33-0.96-1-2c-0.67-1.04-1-2-1-2.89
		c0-1.19,0.56-2.19,1.67-3c1.11-0.81,1.67-1.67,1.67-2.56c0-4.15,0.74-7.04,2.23-8.68c0.89-2.67,1.33-4.75,1.33-6.23l-0.89-3.34
		c0-1.19,0.59-2.97,1.78-5.34c2.23-1.04,3.34-2.15,3.34-3.34l-0.45-6.23c0-2.67,1.63-4.23,4.9-4.67c-0.3-1.48-0.44-2.67-0.44-3.56
		c0-1.48,0.37-2.93,1.11-4.34c0.74-1.41,1.19-3.15,1.33-5.23c0.15-2.08,0.78-3.6,1.89-4.56c1.11-0.96,1.96-2.85,2.56-5.67
		c0.59-2.82,2.37-6.38,5.34-10.68c2.97-4.3,4.75-7.53,5.34-9.68c0.59-2.15,1.11-3.23,1.56-3.23c3.41,0,5.12-0.59,5.12-1.78
		c0-1.19-0.97-2.37-2.89-3.56l-0.45-1.33c0-3.12,2.3-6.6,6.9-10.46c0-4.3,1.34-6.45,4.01-6.45l-1.34-3.56
		c0-1.93,1.37-5.3,4.12-10.13c2.74-4.82,4.86-10.27,6.34-16.36l2.45-3.34c1.19-1.48,1.78-2.52,1.78-3.12l-0.44-2.67
		c1.48-3.71,2.23-5.71,2.23-6.01c0-1.63-0.59-2.82-1.78-3.56c-4.6,0.59-8.09,2.67-10.46,6.23l-0.89,1.11h-4.23
		c-2.38,0-5.42,2.52-9.12,7.57l-6.45,5.12c-6.83,5.05-12.28,9.24-16.36,12.57c-4.08,3.34-6.86,6.2-8.34,8.57l-3.34,5.12
		c-0.74,1.33-1.86,5.2-3.34,11.57c-1.48,6.38-5.56,9.57-12.23,9.57c-9.79,0-14.68-5.04-14.68-15.13
		C29.75,1116.96,33.76,1111.84,41.77,1105.17z"/>
	<path class="st2" d="M384.47,1232.69l3.55-3.12c2.22,0,3.55-1,3.99-3c0.45-2,2.03-3.6,4.77-4.79c2.74-1.19,5.29-3.59,7.66-7.23
		c2.36-3.63,4.81-5.45,7.32-5.45c0.89,0,1.92,0.74,3.1,2.23c1.18,1.48,1.78,2.67,1.78,3.56c0,4.9-1.48,9.94-4.45,15.13l-0.89,6.23
		l-1.56,2.89c-2.23,1.19-3.67,2.45-4.34,3.78c-0.67,1.33-2.41,2.97-5.23,4.9l-2.23,3.12c-3.27,1.04-5.45,2.75-6.57,5.12
		c-1.11,2.38-2.67,3.71-4.67,4.01c-2,0.3-4.19,1.78-6.56,4.45c-1.48,0.74-3.27,1.41-5.34,2l-0.45,2.23
		c-1.48,1.49-3.82,2.67-7.01,3.56c-3.19,0.89-5.56,1.75-7.12,2.56c-1.56,0.82-2.63,1.22-3.22,1.22c-2.82,0-5.42-0.56-7.79-1.67
		c-2.37-1.11-4.82-1.81-7.34-2.11c-0.89-0.89-1.41-1.85-1.56-2.89c-0.15-1.04-0.89-2.41-2.23-4.12c-1.34-1.7-2-4.04-2-7.01
		l0.89-4.23c0-0.59-0.37-1.33-1.11-2.23c-0.74-0.89-1.11-1.63-1.11-2.23c0-0.59,0.15-1.04,0.44-1.33c0.3-0.3,0.45-0.74,0.45-1.34
		c0-0.74-0.15-1.56-0.45-2.45c-0.3-0.89-0.44-1.63-0.44-2.23l1.33-10.9c0-0.89-0.3-1.34-0.89-1.34c-0.59,0-1.67,0.74-3.23,2.23
		c-1.56,1.49-3.38,2.23-5.45,2.23c-1.19,0.89-2.15,2.75-2.9,5.56c-1.19,1.48-2.67,2.82-4.45,4.01l-0.89,1.33
		c-0.3,1.04-1.41,1.89-3.34,2.56c-1.93,0.67-3.27,1.52-4.01,2.56l-2.23,2.23l-4.23-0.45c-0.3,0.3-1.12,1.6-2.45,3.89
		c-1.34,2.3-3.04,4.19-5.12,5.67l-16.92,13.8c-1.78,1.19-4.38,2.67-7.79,4.45l-1.34,1.34c-11.87,7.87-20.25,11.79-25.15,11.79
		c-4.01,0-8.68-1.11-14.02-3.34c-5.34-2.23-8.23-4.9-8.68-8.01l-2.23-9.12c-1.34-2.08-2-4.97-2-8.68c0-1.78,0.15-2.97,0.44-3.56
		v-1.33l-0.44-7.34c0-1.78,1.41-2.67,4.23-2.67l-0.44-6.01c0-0.59,1.3-2.93,3.89-7.01c2.59-4.08,4.34-6.42,5.23-7.01l2.23-2.89
		c-0.15-1.78,0.89-3.67,3.12-5.67c2.23-2,4.01-4.04,5.35-6.12c1.33-2.08,3.86-4.37,7.58-6.9l6.68-6.68
		c5.2-5.19,10.84-9.35,16.93-12.46c0.89-0.3,2.71-1.78,5.46-4.45s5.87-4.63,9.36-5.9c3.49-1.26,6.91-2.85,10.25-4.78
		c3.34-1.93,5.98-2.89,7.91-2.89h1.78c0.59,0,4.53-1.85,11.81-5.56h1.34c0.59,0,2,0.59,4.23,1.78h0.45l3.57-1.78
		c0.59-0.3,1.34-0.45,2.23-0.45c9.21,0,14.26,6.38,15.15,19.14c0.3,2.67,1.04,4.01,2.23,4.01c1.48,0,3.6-2.71,6.35-8.12
		c2.75-5.41,8.57-8.12,17.48-8.12c6.38,0,9.57,4.08,9.57,12.24c0,9.65-4.3,18.77-12.91,27.37c-0.59,1.19-1.04,2.52-1.33,4.01
		l-3.12,9.12v0.45c0,0.89-0.63,2.11-1.89,3.67c-1.26,1.56-1.89,2.93-1.89,4.12l0.44,5.56l-0.89,6.23c0,2.82,0.52,4.67,1.55,5.56
		c4.73-1.19,8.17-3.15,10.32-5.9c2.15-2.74,3.66-4.26,4.55-4.56l2.22-0.89C381.14,1236.02,382.7,1234.17,384.47,1232.69z
		 M310.57,1232.69c0.59-3.26,2.41-5.75,5.46-7.46c3.04-1.7,4.86-3.45,5.45-5.23c2.82-2.08,6.86-5.79,12.13-11.13s7.9-8.6,7.9-9.79
		c0-0.45-0.3-0.67-0.89-0.67h-0.45l-1.78,1.11l-4.01-0.45l-4.23,0.45l-3.12-1.56l-2.89,0.45l-4.45-0.89c-2.38,0-4.42,0.48-6.12,1.45
		c-1.71,0.97-4.97,2.04-9.8,3.23c-4.82,1.19-9.16,3.23-13.02,6.12c-3.86,2.89-6.68,4.34-8.46,4.34c-1.04,2.23-4.53,5.42-10.46,9.57
		c-3.56,1.19-5.87,3.78-6.9,7.79c-3.86,3.12-5.79,4.9-5.79,5.34l-1.56,3.78c-1.19,1.04-2.67,1.89-4.45,2.56
		c-1.78,0.67-2.82,2.23-3.12,4.67c-0.3,2.45-1.3,4.67-3,6.68c-1.71,2-2.56,3.6-2.56,4.79c0,7.27,1.41,10.9,4.23,10.9
		c1.19,0,3.67-0.78,7.46-2.34c3.78-1.56,5.97-2.63,6.57-3.23c0.59-0.59,1.78-1.19,3.56-1.78l4.23-2.23c0.59-0.59,1.26-0.96,2-1.11
		c0.74-0.15,1.48-0.63,2.23-1.45c0.74-0.81,2.08-1.7,4.01-2.67c1.93-0.96,3.41-2.26,4.45-3.89c2.52-1.48,6.6-3.78,12.24-6.9
		l4.67-3.56c3.26-1.48,5.26-2.74,6.01-3.78C306.86,1234.76,308.35,1233.73,310.57,1232.69z"/>
	<path class="st2" d="M429.58,1225.79v-2.22c0-1.48,1.48-4.67,4.45-9.57c2.96-4.9,6.37-8.08,10.23-9.57c0.3,0,0.44-0.15,0.44-0.44
		l-0.44-3.56c0.59-0.59,2.07-2.52,4.44-5.79c2.37-3.26,4.67-4.67,6.9-4.23c1.63-2.37,3.71-4.34,6.23-5.9
		c2.52-1.56,4.82-3.6,6.89-6.12l8.23-5.12c5.78-3.86,10-5.79,12.67-5.79h3.34c1.78-2.97,4.15-4.45,7.11-4.45
		c2.82,0,4.67,0.45,5.56,1.33c0.3,0.3,0.59,0.45,0.89,0.45c0.15,0,1.04-0.59,2.67-1.78c1.63-1.19,3.63-1.78,6-1.78
		c0.59,0,3.93,1.19,10,3.56c1.78-1.78,3.48-2.67,5.11-2.67c0.59,0,1.63,0.45,3.11,1.34c1.48,0.89,3,1.67,4.56,2.34
		c1.56,0.67,3.08,3.42,4.56,8.23c1.48,4.82,2.23,7.53,2.23,8.12c0,2.38-1.96,5.16-5.89,8.35c-3.92,3.19-7.59,4.78-10.99,4.78
		c-1.19,0-2.67-1.04-4.44-3.12c-4.44-0.89-8.22-2-11.33-3.34c-4.15,0.89-7.33,2-9.55,3.34h-0.44l-2-1.78l-1.78-0.45h-0.45
		c-0.45,0.59-1.04,1.63-1.78,3.12c-2.37,1.63-4.4,2.71-6.11,3.23c-1.7,0.52-3.07,1.33-4.11,2.45c-1.04,1.11-2.78,2.26-5.22,3.45
		c-2.44,1.19-4.26,2.82-5.44,4.9c-2.96,1.63-5.11,2.6-6.44,2.89h-1.33c-1.19,2.38-3.93,6.31-8.22,11.79l-5.77,9.57
		c-1.33,1.19-2.97,2.56-4.9,4.12c-1.93,1.56-2.89,2.93-2.89,4.12c0,0.3,0.15,1.04,0.45,2.23v2.23c0,0.89-0.71,1.97-2.11,3.23
		c-1.41,1.26-2.11,2.19-2.11,2.78l0.45,4.9l-1.78,7.79c0,4.6,3.34,6.9,10.01,6.9h3.34l9.56-1.56c3.11-0.45,5.7-0.89,7.78-1.34
		c2.08-0.45,3.26-0.67,3.56-0.67c0.3,0,1.48-0.81,3.56-2.45h2.23l2-0.45c0.59-3.12,4.82-5.71,12.67-7.79c1.78-2.67,4.78-4.63,9-5.9
		c4.22-1.26,8.48-3.97,12.78-8.12h3.33c0.44,0,1.81-0.85,4.11-2.56c2.29-1.7,4.67-3.08,7.11-4.12c2.44-1.04,3.96-1.93,4.56-2.67
		c0.59-0.74,1.7-1.41,3.33-2c2.67-4.15,5.85-6.75,9.56-7.79l0.89-0.89c2.37-2.08,3.85-3.12,4.45-3.12l2.67,0.45
		c1.48,0,2.41-0.92,2.78-2.78c0.37-1.85,2.74-4.38,7.11-7.57c4.37-3.19,7.15-4.78,8.33-4.78c2.82,0,4.22,1.48,4.22,4.45
		c0,2.22-1.26,3.49-3.78,3.78c1.63,3.86,2.45,6.01,2.45,6.45c0,4.9-2.45,8.09-7.34,9.57c-0.59,0.3-0.89,0.74-0.89,1.34l-0.44,4.01
		c0.15,0,0.15,0.11,0,0.33c-0.15,0.22-0.45,0.56-0.89,1l-3.34,0.45l-0.89,1.33c-3.27,1.78-7.05,4.82-11.35,9.12l-4.45,4.67h-0.67
		c-1.48-1.48-2.67-2.23-3.56-2.23c-0.59,0-1.34,1.04-2.23,3.12c-5.05,5.05-8.68,7.94-10.9,8.68c-0.89,0.3-2.45,1.48-4.67,3.56
		l-4.45,2.89h-3.34c-0.44,0.44-0.85,1.08-1.22,1.89c-0.37,0.82-1.67,2.04-3.89,3.67c-2.23,1.63-3.82,3.08-4.78,4.34
		c-0.97,1.26-2.34,2.19-4.12,2.78l-4.01-0.89c-1.33,2.37-3.78,3.56-7.34,3.56c-0.89,0.59-2.19,1.75-3.89,3.45
		c-1.71,1.71-2.86,2.56-3.45,2.56c-0.59,0-2.15-0.89-4.67-2.67h-0.44c-1.48,0-2.23,1.11-2.23,3.34s-1.37,3.42-4.12,3.56
		c-2.74,0.15-5.3,0.89-7.67,2.23h-0.44c-3.41,0-5.86-0.63-7.34-1.89c-1.48-1.26-2.82-2.19-4-2.78c-4.6,1.48-7.05,2.23-7.34,2.23
		c-1.78,0-3.49-0.74-5.12-2.23l-9.57-4.9c-0.59-0.45-1.63-2.45-3.12-6.01l-1.34-1.78c-4.75-0.89-7.94-5.79-9.57-14.69l-1.78-5.34
		c-0.3-0.3-0.45-0.96-0.45-2c0-1.48,0.59-3.75,1.78-6.79c1.19-3.04,2.37-7.12,3.56-12.24
		C423.42,1230.35,425.87,1227.12,429.58,1225.79z"/>
	<path class="st2" d="M733.2,1232.69l3.55-3.12c2.22,0,3.55-1,3.99-3c0.44-2,2.03-3.6,4.77-4.79c2.74-1.19,5.29-3.59,7.66-7.23
		c2.37-3.63,4.81-5.45,7.32-5.45c0.89,0,1.92,0.74,3.11,2.23c1.18,1.48,1.78,2.67,1.78,3.56c0,4.9-1.48,9.94-4.45,15.13l-0.89,6.23
		l-1.56,2.89c-2.22,1.19-3.67,2.45-4.34,3.78c-0.67,1.33-2.41,2.97-5.22,4.9l-2.23,3.12c-3.27,1.04-5.45,2.75-6.56,5.12
		c-1.11,2.38-2.67,3.71-4.67,4.01c-2,0.3-4.19,1.78-6.56,4.45c-1.48,0.74-3.26,1.41-5.34,2l-0.45,2.23
		c-1.48,1.49-3.82,2.67-7.01,3.56c-3.19,0.89-5.56,1.75-7.12,2.56c-1.56,0.82-2.63,1.22-3.22,1.22c-2.82,0-5.42-0.56-7.79-1.67
		c-2.37-1.11-4.82-1.81-7.34-2.11c-0.89-0.89-1.41-1.85-1.56-2.89c-0.15-1.04-0.89-2.41-2.23-4.12c-1.33-1.7-2-4.04-2-7.01
		l0.89-4.23c0-0.59-0.37-1.33-1.11-2.23c-0.74-0.89-1.11-1.63-1.11-2.23c0-0.59,0.15-1.04,0.45-1.33c0.29-0.3,0.45-0.74,0.45-1.34
		c0-0.74-0.15-1.56-0.45-2.45c-0.3-0.89-0.45-1.63-0.45-2.23l1.34-10.9c0-0.89-0.3-1.34-0.89-1.34c-0.59,0-1.67,0.74-3.23,2.23
		c-1.56,1.49-3.38,2.23-5.45,2.23c-1.19,0.89-2.15,2.75-2.9,5.56c-1.19,1.48-2.67,2.82-4.45,4.01l-0.89,1.33
		c-0.3,1.04-1.41,1.89-3.34,2.56c-1.93,0.67-3.27,1.52-4.01,2.56l-2.23,2.23l-4.23-0.45c-0.3,0.3-1.12,1.6-2.45,3.89
		c-1.34,2.3-3.04,4.19-5.12,5.67l-16.92,13.8c-1.78,1.19-4.38,2.67-7.79,4.45l-1.34,1.34c-11.87,7.87-20.25,11.79-25.15,11.79
		c-4.01,0-8.68-1.11-14.02-3.34c-5.34-2.23-8.23-4.9-8.68-8.01l-2.23-9.12c-1.34-2.08-2-4.97-2-8.68c0-1.78,0.15-2.97,0.44-3.56
		v-1.33l-0.44-7.34c0-1.78,1.41-2.67,4.23-2.67l-0.44-6.01c0-0.59,1.3-2.93,3.89-7.01c2.59-4.08,4.34-6.42,5.23-7.01l2.23-2.89
		c-0.15-1.78,0.89-3.67,3.12-5.67c2.23-2,4.01-4.04,5.35-6.12c1.33-2.08,3.86-4.37,7.58-6.9l6.68-6.68
		c5.2-5.19,10.84-9.35,16.93-12.46c0.89-0.3,2.71-1.78,5.46-4.45s5.87-4.63,9.36-5.9c3.49-1.26,6.91-2.85,10.25-4.78
		c3.34-1.93,5.98-2.89,7.91-2.89h1.78c0.59,0,4.53-1.85,11.81-5.56h1.34c0.59,0,2,0.59,4.23,1.78h0.44l3.57-1.78
		c0.59-0.3,1.34-0.45,2.23-0.45c9.21,0,14.26,6.38,15.15,19.14c0.3,2.67,1.04,4.01,2.23,4.01c1.48,0,3.6-2.71,6.35-8.12
		c2.75-5.41,8.57-8.12,17.48-8.12c6.38,0,9.57,4.08,9.57,12.24c0,9.65-4.3,18.77-12.91,27.37c-0.59,1.19-1.04,2.52-1.33,4.01
		l-3.12,9.12v0.45c0,0.89-0.63,2.11-1.89,3.67c-1.26,1.56-1.89,2.93-1.89,4.12l0.45,5.56l-0.89,6.23c0,2.82,0.52,4.67,1.55,5.56
		c4.73-1.19,8.17-3.15,10.32-5.9c2.14-2.74,3.66-4.26,4.55-4.56l2.22-0.89C729.87,1236.02,731.42,1234.17,733.2,1232.69z
		 M659.3,1232.69c0.59-3.26,2.41-5.75,5.46-7.46c3.04-1.7,4.86-3.45,5.45-5.23c2.82-2.08,6.86-5.79,12.13-11.13
		c5.27-5.34,7.9-8.6,7.9-9.79c0-0.45-0.3-0.67-0.89-0.67h-0.45l-1.78,1.11l-4.01-0.45l-4.23,0.45l-3.12-1.56l-2.89,0.45l-4.45-0.89
		c-2.38,0-4.42,0.48-6.12,1.45c-1.71,0.97-4.97,2.04-9.8,3.23c-4.82,1.19-9.16,3.23-13.02,6.12c-3.86,2.89-6.68,4.34-8.46,4.34
		c-1.04,2.23-4.53,5.42-10.46,9.57c-3.56,1.19-5.87,3.78-6.9,7.79c-3.86,3.12-5.79,4.9-5.79,5.34l-1.56,3.78
		c-1.19,1.04-2.67,1.89-4.45,2.56c-1.78,0.67-2.82,2.23-3.12,4.67c-0.3,2.45-1.3,4.67-3,6.68c-1.71,2-2.56,3.6-2.56,4.79
		c0,7.27,1.41,10.9,4.23,10.9c1.19,0,3.67-0.78,7.46-2.34c3.78-1.56,5.97-2.63,6.57-3.23c0.59-0.59,1.78-1.19,3.56-1.78l4.23-2.23
		c0.59-0.59,1.26-0.96,2-1.11c0.74-0.15,1.48-0.63,2.23-1.45c0.74-0.81,2.08-1.7,4.01-2.67c1.93-0.96,3.41-2.26,4.45-3.89
		c2.52-1.48,6.6-3.78,12.24-6.9l4.67-3.56c3.26-1.48,5.26-2.74,6.01-3.78C655.59,1234.76,657.07,1233.73,659.3,1232.69z"/>
	<path class="st2" d="M824.01,1089.14l3.12-0.89l2.23-2.22h0.45l2,0.89h0.45c3.56,0,6.72-0.7,9.49-2.11c2.76-1.41,5.08-2.41,6.96-3
		c1.88-0.59,3.04-1.04,3.49-1.34c0.45-0.29,0.82-0.44,1.12-0.44l3.6,0.44c1.19,0,2.78-2.11,4.78-6.34c2-4.23,4.26-7.31,6.78-9.24
		c2.52-1.93,5.04-5.56,7.56-10.91c0.59-0.74,1.26-1.89,2-3.45c0.74-1.56,1.33-2.34,1.78-2.34c2.22,0,4-1.41,5.34-4.23
		c4.44-5.19,8.08-7.79,10.89-7.79c3.71,0,6.3,3.56,7.79,10.68l2.23,8.46c0,0.15-0.37,1.22-1.11,3.23c-0.74,2-1.08,4.01-1,6.01
		c0.07,2,0,3.34-0.22,4.01c-0.22,0.67-0.33,1.45-0.33,2.34c0,1.19,1.26,1.78,3.78,1.78c0.89,0,2.52-0.59,4.9-1.78l1.33-0.44
		c1.48,0.89,2.74,1.33,3.78,1.33c0.3,0,2.41-0.74,6.34-2.23c3.93-1.48,6.42-2.3,7.46-2.45c1.04-0.15,2.82-0.74,5.34-1.78h2.67
		l1.78,0.67c0.59,0,1.82-0.63,3.67-1.89c1.85-1.26,5.38-2.04,10.57-2.34l3.12-1.33h0.89c4.9,0,7.34,2.15,7.34,6.45
		c0,0.89-0.71,2.45-2.11,4.67c-1.41,2.23-2.56,4.75-3.45,7.57l-10.24,12.91c-3.42,4.45-6.83,6.68-10.24,6.68
		c-0.59,0-2.45-2-5.56-6.01c0-0.3-0.3-0.45-0.89-0.45c-1.48,0-3.04,0.3-4.67,0.89c-1.63,0.59-2.97,0.89-4.01,0.89
		c-0.45,0-4.38,1.11-11.79,3.34l-5.34,0.89c-0.59,0-2,0.3-4.23,0.89l-11.36,2.23c-3.86,1.93-6.91,5.56-9.13,10.9
		c0,0.3-0.74,0.97-2.23,2l-10.02,18.25c-3.27,0.89-5.43,2.82-6.46,5.79l-0.89,1.33c-1.63,0.3-3.12,1.22-4.46,2.78
		c-1.34,1.56-2.6,2.78-3.79,3.67l-4.01,6.01c-1.64,2.08-3.27,4.34-4.91,6.79c-1.63,2.45-2.82,5.05-3.57,7.79
		c-0.74,2.75-1.34,4.34-1.78,4.78c-0.45,0.45-0.67,1.26-0.67,2.45l-0.67,1.78c-1.79,1.78-2.68,3.78-2.68,6.01l0.89,3.56
		c-2.08,7.12-3.12,10.91-3.12,11.35c0,0.3,0.15,1.11,0.45,2.45v1.34c0,3.26-1.19,7.34-3.57,12.24l0.45,3.56l-1.34,10.01
		c0,1.33,0.45,3.78,1.34,7.34c-0.6,0.59-0.89,1.04-0.89,1.34c0,4.16,2.19,8.72,6.58,13.69c4.38,4.97,6.58,12.72,6.58,23.26
		c0,0.89-0.23,2.19-0.67,3.89c-0.45,1.71-0.74,3.56-0.89,5.56c-0.15,2-1.3,3.97-3.46,5.9c-2.16,1.93-3.97,2.89-5.46,2.89
		c-7.88,0-13.75-5.71-17.62-17.14c-3.87-11.42-5.8-18.77-5.8-22.03l0.45-8.68l-1.34-4.45l1.34-19.58l-0.89-4.67l5.13-19.14v-6.9
		c0-0.29,1.04-1.48,3.12-3.56c0-0.3-0.3-0.45-0.89-0.45c-0.89,0-2.08,0.89-3.57,2.67c-1.49,1.78-3.34,3.49-5.57,5.12l-1.78,3.12
		c-0.3-0.3-0.89-0.59-1.78-0.89c-0.74,0.3-3.2,3.78-7.36,10.46c-3.12,0.44-5.57,2.23-7.36,5.34s-4.24,4.67-7.35,4.67l-0.89,0.45
		c-0.59,4.3-2.67,6.45-6.24,6.45l-0.89,0.45c-2.23,5.04-4.53,7.49-6.91,7.34c-1.49,4.45-5.13,7.49-10.92,9.12
		c-0.89,1.78-2.19,3.12-3.9,4.01c-1.71,0.89-2.93,1.71-3.68,2.45c-0.74,0.74-1.41,1.11-2.01,1.11c-1.93,0-2.9-2.08-2.9-6.23
		c0-1.19,0.48-2.48,1.45-3.89c0.97-1.41,1.45-2.41,1.45-3c0-0.3-0.74-1.19-2.23-2.67c0-4.6,1.19-7.49,3.56-8.68
		c2.38-1.19,4.16-2.89,5.35-5.12c0.74-1.78,2.23-3.04,4.45-3.78c2.23-0.74,3.34-1.7,3.34-2.89c0-1.04,1.93-3.12,5.79-6.23
		c3.86-3.12,6.68-5.82,8.46-8.12c1.78-2.3,3.27-3.45,4.46-3.45l0.89-0.89c0.3-3.71,1.71-5.56,4.24-5.56l2.23-1.34l0.45-1.78
		l1.34-0.89h1.78l1.11-0.89c0.29-3.71,2.04-6.6,5.23-8.68c3.19-2.08,9.02-7.9,17.49-17.47s13.22-15.69,14.26-18.36
		c1.04-2.67,2.94-6.27,5.68-10.79c2.75-4.52,4.27-8.79,4.57-12.8c-0.3-0.59-0.74-1.19-1.33-1.78l-9.57,4.67c0-0.45-1.48-1.11-4.45-2
		c-2.23,1.33-3.86,2.67-4.9,4.01c-1.04,1.33-1.86,2-2.45,2l-3.12-0.45l-9.79,1.11c-8.76,0.74-15.36,2.52-19.81,5.34l-9.12,2.67h-2
		c-1.19,0-2.97,0.74-5.34,2.23l-5.12-0.45c-4.75,2.52-8.23,3.78-10.46,3.78c-0.3,0-1.19-0.15-2.67-0.44l-22.7,6.23
		c-1.78,0.59-5.79,3.64-12.02,9.13l-1.78,0.44c-1.48,0-3.23-1.67-5.23-5.01s-3-6.34-3-9.01c0-14.69,12.61-23.22,37.83-25.59
		l9.13-3.56h0.45l2.45,0.89h0.89c0.89,0,2.3-0.56,4.23-1.67c1.93-1.11,6.23-2.48,12.91-4.12l9.12-2.45l2.89,0.45
		c1.48,0,3.15-0.59,5.01-1.78c1.85-1.19,4.67-2.04,8.46-2.56c3.78-0.52,6.42-1.07,7.9-1.67l3.56-0.89c0.59,0,1.82-0.52,3.67-1.56
		c1.85-1.04,4.26-1.56,7.23-1.56C821.12,1088.25,822.23,1088.55,824.01,1089.14z"/>
	<path class="st2" d="M884.43,1213.1l3.57-3.12h1.33c1.04,0,2.6-1.11,4.68-3.34l2.23-0.89c2.97-4.45,5.57-7.04,7.8-7.79l3.57-2.67
		c0.59-0.59,1.45-1.11,2.56-1.56c1.11-0.45,2.9-1.89,5.35-4.34c2.45-2.45,4.42-3.67,5.9-3.67c1.49,0,2.67,0.15,3.56,0.45
		c0.89-1.78,2.67-3.52,5.34-5.23c2.67-1.7,4.83-3.75,6.46-6.12l2.9-1.34c2.38-1.19,4.49-2.71,6.35-4.56
		c1.86-1.85,4.27-2.78,7.24-2.78c4.3,0,8.8,2.19,13.47,6.57c4.67,4.38,7.01,8.57,7.01,12.57l-3.78,17.36
		c-2.52,12.76-5.34,19.44-8.46,20.03l-0.89,4.67c-2.08,1.48-3.12,2.67-3.12,3.56l1.34,5.34c0,0.74-0.82,1.86-2.45,3.34
		c-0.3,0-0.45,0.45-0.45,1.34v9.12c0,1.63-1.04,2.97-3.12,4.01c0.29,0.3,0.74,0.59,1.33,0.89c0.89-0.89,2.89-1.33,6.01-1.33
		l3.56,0.45l4.89-4.9c1.04-0.29,2.48-1,4.33-2.11c1.85-1.11,5-2.56,9.45-4.34l29.12-22.25c4-4.01,7.03-6.01,9.11-6.01
		c2.22,0,3.33,1.41,3.33,4.23c0,3.27-0.63,5.97-1.89,8.12c-1.26,2.15-2.41,4.75-3.45,7.79c-1.04,3.04-2.26,5.16-3.67,6.34
		c-1.41,1.19-2.56,2.49-3.45,3.89c-0.89,1.41-3.3,3.45-7.23,6.12c-3.93,2.67-7.27,5.38-10.01,8.12c-2.74,2.75-5,4.71-6.78,5.9
		l-9.57,6.9l-1.33,2.22c-0.3,0.3-1.67,0.93-4.12,1.89c-2.45,0.97-4.64,2.19-6.57,3.67l-4,2.22c-0.89,0.59-2.34,0.97-4.34,1.11
		c-2,0.15-3.75,1-5.23,2.56c-1.49,1.56-2.67,2.34-3.56,2.34l-3.34-0.44l-4.45,1.33c-2.52,0-5.6-1.52-9.24-4.56
		c-3.64-3.04-5.45-6.27-5.45-9.68v-1.33l0.44-3.12c0-0.59-0.44-2.11-1.33-4.56c-0.89-2.45-1.33-3.82-1.33-4.12l0.45-3.12l-0.45-1.34
		c0-4.01,0.29-6.53,0.89-7.57c0.59-1.04,1.04-2.48,1.34-4.34c0.29-1.85,0.59-3.37,0.89-4.56l1.11-5.56
		c0.59-1.78,1.33-2.97,2.22-3.56c0.3-1.19,0.89-3.19,1.78-6.01l0.89-4.01l2.23-3.12c1.19-1.19,1.89-2.78,2.11-4.78s1-4.12,2.34-6.34
		c1.33-2.23,2-3.56,2-4.01c0-1.78-0.89-2.67-2.67-2.67c-0.59,0-2.45,1.19-5.56,3.56l-4.01-1.34c-0.3,0-1.11,0.74-2.45,2.23
		c0,0.59-0.67,1.04-2,1.34c-1.34,0.3-2.6,1.41-3.78,3.34l-1.78,0.45l-2.89-1.34h-0.89c-1.48,0-2.38,1.63-2.67,4.9
		c-1.63,2.38-3.79,3.93-6.46,4.67l-4.9,1.34c-1.63,0.59-2.82,1.93-3.56,4.01c-0.74,2.08-2.23,3.97-4.45,5.67
		c-2.23,1.71-3.71,2.56-4.45,2.56c-4.16,0-6.23-2.3-6.23-6.9l1.78-10.46L884.43,1213.1z M980.57,1101.83l-1.33-8.68v-1.33
		c0-6.97,2.37-10.83,7.12-11.57c1.04-0.15,4.15-1.11,9.35-2.89c2.67,0.59,5.45,2.93,8.35,7.01c2.89,4.08,4.34,7.68,4.34,10.79
		c0,0.3-0.22,0.97-0.67,2c-0.45,1.04-0.74,3-0.89,5.9c-0.15,2.89-1.6,5.42-4.34,7.57c-2.75,2.15-5.67,3.23-8.79,3.23
		c-2.08,0-4.71-1.45-7.9-4.34C982.61,1106.61,980.86,1104.05,980.57,1101.83z"/>
	<path class="st2" d="M1138.81,1266.96l-10.47,9.12c-0.59-0.59-1.19-0.89-1.78-0.89c-1.48,0-3.3,1.33-5.46,4.01
		c-2.16,2.67-3.67,4.01-4.57,4.01l-2.23-0.45c-3.71,2.82-6.38,4.45-8.02,4.9c-1.63,0.45-3.6,1.26-5.9,2.45
		c-2.3,1.19-4.38,1.86-6.24,2c-1.86,0.15-3.38,0.78-4.57,1.89c-1.19,1.11-4.08,1.67-8.68,1.67l-3.56-0.44
		c-1.93,0.89-3.19,1.33-3.78,1.33c-1.19,0-2.46-0.63-3.79-1.89c-1.34-1.26-2.79-1.96-4.34-2.11c-1.56-0.15-3.15-1.19-4.79-3.12
		c-1.63-1.93-3.15-3.26-4.56-4.01c-1.41-0.74-2.56-1.78-3.45-3.12l-3.12-2.67c-2.53-1.78-4.98-5.04-7.35-9.79
		c-2.38-4.75-3.56-8.46-3.56-11.13v-0.89l0.45-4.23l-0.45-4.9c0.59-0.59,1.33-1.85,2.23-3.78v-7.12l5.34-17.8
		c0.3-0.74-0.3-1.7-1.78-2.89c-1.48,2.23-2.97,3.56-4.46,4.01c-1.49,0.45-2.5,1.48-3.02,3.12c-0.52,1.63-1.38,2.45-2.58,2.45
		l-2.69-0.89c-0.3,0.3-0.97,1.82-2.02,4.56c-1.05,2.75-2.84,4.12-5.38,4.12c-2.69,0-4.04-1.04-4.04-3.12l0.45-4.01l-1.35-5.56
		c0-1.19,1.19-3.52,3.57-7.01c2.38-3.48,4.57-5.49,6.58-6.01c2.01-0.52,3.72-1.93,5.13-4.23c1.41-2.3,4.49-5.08,9.25-8.34
		c2.67-0.59,4.98-2.52,6.91-5.79c2.08-1.63,4.79-2.97,8.13-4.01c3.34-1.04,5.87-2.56,7.58-4.56s6.76-5.12,15.16-9.35
		s14.53-6.34,18.39-6.34c1.19,0,2.82-0.33,4.91-1c2.08-0.67,4.01-1.26,5.8-1.78c1.78-0.52,3.64-1.34,5.57-2.45
		c1.93-1.11,3.49-1.67,4.68-1.67l6.46,2.23c4.76,1.33,7.65,2.3,8.7,2.89c0.3,0.3,1.82,0.93,4.57,1.89c2.75,0.97,5.57,2.26,8.47,3.89
		c2.9,1.63,4.35,4.67,4.35,9.12c-2.53,3.71-3.79,5.71-3.79,6.01c0,0.59,1.71,1.49,5.13,2.67c1.19,2.23,2.97,5.12,5.35,8.68
		l2.45,7.79l0.44,18.25l-0.44,1.78c-1.63,1.49-2.45,2.45-2.45,2.89l0.67,4.45l-1.78,6.23c-0.44,1.93-1.19,3.19-2.23,3.78
		c-1.04,0.59-1.71,1.33-2,2.23l-1.33,1.78c-0.3,0.45-0.93,1.75-1.9,3.89c-0.97,2.15-2.04,3.82-3.23,5.01
		c-1.19,1.19-1.93,2.6-2.23,4.23c-0.3,1.63-1.04,2.82-2.23,3.56c-1.19,0.74-2.04,1.52-2.56,2.34
		C1140.85,1265.66,1139.99,1266.37,1138.81,1266.96z M1069.65,1272.74l0.89,5.12l0.45,0.44h3.55l1.11,0.45
		c2.96,0.59,5.18,0.89,6.66,0.89c4.59,0,8.25-1.15,10.99-3.45c2.74-2.3,4.92-3.45,6.55-3.45c1.63,0,2.99-1.11,4.11-3.34
		c1.11-2.23,1.81-3.34,2.11-3.34h3.11l0.89-0.45c0-3.41,1.52-5.86,4.55-7.34c3.03-1.48,5.18-3.45,6.44-5.9
		c1.26-2.45,2.7-4.3,4.33-5.56c1.63-1.26,2.74-2.93,3.33-5.01l1.78-2.67c0.59-0.59,0.89-1.7,0.89-3.34l4.22-8.01
		c0.89-3.71,1.33-6.6,1.33-8.68c0-3.12-1.59-5.56-4.78-7.34s-4.77-5.26-4.77-10.46c0-3.41,1.74-6.57,5.22-9.46
		c3.48-2.89,5.22-4.63,5.22-5.23c0-0.89-0.45-1.34-1.33-1.34c-0.45,0-2.15,0.59-5.11,1.78c-1.04,2.08-6.29,4.82-15.77,8.23
		c-3.11-1.48-4.81-2.23-5.11-2.23c-0.89,0-1.78,0.89-2.66,2.67c-0.89,1.78-1.78,3.04-2.67,3.78h-2.89c-0.29,0-1.26,0.97-2.89,2.89
		c-1.63,1.93-3.7,2.89-6.22,2.89l-2.66,2.67c0.15,2.38-1.33,4.82-4.44,7.34l-2.44,2.89c-1.48,1.78-3.4,3.86-5.77,6.23l-4,10.01
		c-1.63,3.86-2.44,6.75-2.44,8.68c-0.44,0.89-1.45,1.82-3,2.78c-1.56,0.97-2.34,2.19-2.34,3.67c0,0.3,0.52,1.04,1.56,2.23
		c1.04,1.19,1.56,2.08,1.56,2.67l-0.89,2.89l-0.89,8.23L1069.65,1272.74z"/>
	<path class="st2" d="M1383.28,1246.48h0.89l2.23,0.89c0.29,0,0.59-0.15,0.89-0.45c0-2.52,1.19-4.67,3.57-6.45
		c0.74-2.82,2.42-4.97,5.02-6.45c2.6-1.48,6.73-3.93,12.38-7.34l5.57-4.9l2.68-1.33l1.78-2.23c1.63-1.93,3.2-2.89,4.68-2.89
		c2.23,0,3.35,0.82,3.35,2.45l-2.01,4.45l0.89,7.34c0,2.67-0.93,5.05-2.79,7.12c-1.86,2.08-4.72,5.12-8.58,9.12l-11.37,12.02
		l-6.02,3.12c-1.49,0.89-2.82,1.93-4.01,3.12l-8.69,7.34c0,2.08-0.67,3.64-2,4.67h-3.57l-1.78,0.89c-1.04,2.82-4.09,5.56-9.14,8.23
		l-3.12,2.23c-1.04,0.89-2.01,1.33-2.9,1.33l-6.24-0.89l-4.23,0.89c-1.19,0-2.79-0.59-4.79-1.78c-2.01-1.19-4.05-2.11-6.13-2.78
		c-2.08-0.67-4.72-3.41-7.91-8.23c-3.2-4.82-4.94-7.97-5.24-9.46c0-0.59-0.34-1.59-1-3c-0.67-1.41-1-2.26-1-2.56
		c0-0.29,0.67-1.78,2.01-4.45v-0.45c0-0.45-0.41-1.48-1.23-3.12c-0.82-1.63-1.22-3.63-1.22-6.01c0-1.33-0.45-3.04-1.33-5.12
		c1.19-1.19,1.78-2.08,1.78-2.67c0-0.59-0.22-1.45-0.67-2.56c-0.45-1.11-0.67-1.96-0.67-2.56l1.34-10.9l-0.89-5.56l0.44-5.34
		c0-3.12-1.33-4.67-3.99-4.67c-1.18,0-2.66,0.82-4.43,2.45l-1.55,0.44c-3.99,1.93-6.8,3.53-8.43,4.79c-1.63,1.26-3.33,1.89-5.1,1.89
		c-0.89,0.89-2.59,1.71-5.1,2.45l-1.77,1.33c-0.59,0.59-1.77,1.48-3.55,2.67c0,0.44-2.77,2.93-8.32,7.46
		c-5.54,4.53-10.53,8.79-14.97,12.8c-4.44,4.01-7.65,6.2-9.65,6.57c-2,0.37-2.99,2.26-2.99,5.67c0,0.59-1.33,1.78-3.99,3.56
		c-0.29,0-1.85,1.63-4.66,4.9c-2.36-1.78-3.7-2.67-3.99-2.67c-1.93,0-3.35,2.45-4.24,7.34c-0.89,1.93-3.27,3.12-7.14,3.56
		c-0.3,0.15-0.82,1.26-1.56,3.34l-0.89,0.89h-2.23c-0.3,0-1.34,0.86-3.12,2.56c-1.79,1.71-3.35,2.78-4.69,3.23
		c-1.93,4.01-3.57,6.01-4.91,6.01c-0.6,0-1.45-0.3-2.57-0.89c-1.12-0.59-2.49-1.11-4.12-1.56s-3.45-2.26-5.45-5.45
		c-2-3.19-3-5.9-3-8.12c0-16.47,3.19-25.44,9.57-26.93l0.45-0.89v-1.78c0-1.93,0.85-3.3,2.56-4.12c1.7-0.81,3.45-2.45,5.23-4.9
		s2.97-3.82,3.56-4.12h2.89c0.59,0,0.89-1.56,0.89-4.67c0-0.89,0.37-1.7,1.11-2.45c0.74-0.74,1.19-1.82,1.33-3.23
		c0.15-1.41,1.22-3.71,3.23-6.9c2-3.19,3-5.08,3-5.67l-0.45-0.89c-3.71,3.41-6.38,5.27-8.01,5.56c-1.63,0.3-3.86,2.45-6.68,6.45
		l-3.56-0.67c-6.24,4.6-10.1,7.2-11.59,7.79c-1.49,0.59-3.13,2.3-4.91,5.12c0,0.89-0.52,1.48-1.56,1.78
		c-1.04,0.3-2.98,1.49-5.8,3.56h-1.34c-3.72,0-5.58-2.67-5.58-8.01l4.67-12.68c1.33-4.01,4.48-7.38,9.45-10.13
		c4.97-2.74,9.15-5.38,12.56-7.9c3.41-2.52,6.82-3.86,10.23-4.01l1.55-2.23c5.04-1.93,8.45-4.97,10.23-9.12
		c1.78-4.15,4.22-6.23,7.34-6.23c8.15,0,14.38,3,18.68,9.01s6.45,10.79,6.45,14.35l0.45,6.01c0,2.08-0.45,4.97-1.33,8.68
		c-1.78,2.67-2.67,4.67-2.67,6.01c0,1.19,0.74,1.78,2.23,1.78c0.89,0,2.07-0.63,3.55-1.89c1.48-1.26,3.15-2.41,5-3.45
		c1.85-1.04,2.93-1.93,3.23-2.67c1.48-3.56,4.07-6.01,7.78-7.34c3.71-1.34,6-2.45,6.9-3.34l2.22-1.78l1.78-3.34
		c4-1.78,6.67-3.41,8-4.9c1.33-1.48,3.11-2.45,5.34-2.89s4.75-1.78,7.56-4.01l3.33-0.89l3.11-1.78c0.3-0.29,1.19-0.67,2.67-1.11
		s3.67-1.22,6.56-2.34c2.89-1.11,4.85-1.67,5.89-1.67c7.56,0,13.52,3.04,17.9,9.12c4.37,6.09,6.56,10.98,6.56,14.69l-0.45,4.01
		l0.89,6.01v0.89l-1.78,12.24l0.44,4.23c0,6.97-1.48,11.79-4.45,14.46c-0.74,0.3-1.11,1.04-1.11,2.23v2l4.45,9.35
		c1.33,3.27,2.38,4.9,3.12,4.9l7.14-2c2.08-0.59,3.79-2.15,5.13-4.67c1.19-0.59,3.27-2.37,6.25-5.34
		C1379.93,1247.67,1381.34,1246.48,1383.28,1246.48z"/>
	<path class="st2" d="M1459.54,1183.95l3.12-5.56c0.89-1.33,2.04-2.71,3.45-4.12c1.41-1.41,2.93-5.04,4.57-10.9
		c1.63-5.86,3.45-9.9,5.46-12.13s4.94-3.34,8.8-3.34c2.23,0,5.16,1.08,8.8,3.23c3.64,2.15,7.2,8.64,10.69,19.47
		c3.49,10.83,5.24,18.47,5.24,22.92c0,1.78,0.52,4.04,1.56,6.79c1.04,2.75,1.71,4.86,2.01,6.34c-1.19,2.52-1.78,3.93-1.78,4.23
		l0.45,9.12l-2.67,7.34v5.34c-1.78,2.97-2.67,4.82-2.67,5.56c0,0.89,0.29,1.78,0.89,2.67c6.96-2.97,11.19-5.38,12.67-7.23
		c1.48-1.85,2.92-3,4.33-3.45c1.41-0.45,3.74-2.37,7-5.79l4.22-2.23c1.48-1.78,2.74-3.37,3.78-4.78c1.04-1.41,2.26-2.41,3.67-3
		c1.41-0.59,3.07-1.63,5-3.12c1.93-1.48,4.74-3.19,8.45-5.12l2.22-2.67c2.22-2.52,4.85-4.52,7.89-6.01c3.04-1.48,4.7-2.23,5-2.23
		c1.04,0,2.11,1.37,3.22,4.12c1.11,2.75,1.67,5.45,1.67,8.12c0,2.52-1.45,5.01-4.34,7.46c-2.89,2.45-4.86,4.27-5.89,5.45
		c-1.04,1.19-3.41,2.23-7.11,3.12c-0.3,0.15-2.74,3.19-7.34,9.12l-4.45,2.67l-2.22,2.89c-0.3,0.59-2.3,1.19-6,1.78
		c-0.15,0-0.48,0.74-1,2.23c-0.52,1.48-2.11,2.52-4.78,3.12c-5.33,4.9-8.08,7.64-8.22,8.23l-4.67,0.89
		c-0.89,2.82-1.63,4.53-2.22,5.12c-3.56,0.89-5.56,2.38-6.01,4.45c-0.44,0.3-1.19,0.59-2.22,0.89l-0.89,0.67
		c-3.41,2.67-6.74,4.3-10,4.9l-5.11,1.34l-1.78,2.67c0,0.74-1.82,1.71-5.45,2.89c-3.63,1.19-6.34,2.67-8.11,4.45l-3.78,2.89
		c-4.6,1.78-7.49,3.42-8.67,4.9h-3.12c-2.08,0-5.34,1.52-9.78,4.56c-4.45,3.04-8,4.56-10.67,4.56c-8.6,0-14.49-1.08-17.67-3.23
		c-3.18-2.15-5.81-4.82-7.89-8.01c-2.07-3.19-3.96-5.75-5.67-7.68c-1.7-1.93-2.56-3.48-2.56-4.67c0-1.04,0.71-2.08,2.11-3.12
		c1.41-1.04,2.93-3.15,4.56-6.34c1.63-3.19,5.78-5.23,12.45-6.12c0.3,0,1.37-0.45,3.22-1.33c1.85-0.89,3.37-1.34,4.55-1.34
		c1.48,0,3.33,1.34,5.56,4.01c0,0.3,0.3,0.45,0.89,0.45l3.56-0.45c1.63,1.19,2.74,1.78,3.33,1.78c3.55,0,7.33-1.78,11.34-5.34
		l0.89-0.45h1.78c0.45,0,1.19-1.26,2.22-3.78l3.78-7.79l7.78-10.01v-2.22c0-0.45,0.45-1.78,1.33-4.01v-3.34
		c0-1.33,0.89-2.19,2.67-2.56c1.78-0.37,2.67-1.3,2.67-2.78l-0.44-1.78c-1.19-1.63-1.78-2.89-1.78-3.78l2.22-4.45l-0.44-4.67
		l0.89-1.78c-0.59-2.08-0.89-3.26-0.89-3.56l0.89-5.56c0-0.15-0.41-1.56-1.23-4.23c-0.82-2.67-1.45-4.01-1.89-4.01
		c-0.89,0-3.71,2.3-8.47,6.9c-4.75,4.6-7.58,7.87-8.47,9.79c-0.89,1.93-2.79,3.67-5.68,5.23c-2.9,1.56-4.86,3.3-5.9,5.23
		c-1.04,1.93-2.3,3.04-3.79,3.34l-14.93,12.02l-16.26,12.02c-1.19,1.34-1.93,2-2.23,2c-5.49,0-8.24-3.04-8.24-9.12
		c0-1.93,1.12-5.41,3.34-10.46c1.04-0.59,1.82-1.04,2.34-1.34c0.53-0.29,0.78-0.52,0.78-0.67c0-0.15-0.15-0.22-0.45-0.22l1.33,0.89
		h0.45c5.5-3.71,9.06-5.86,10.69-6.45c1.63-0.59,3.12-2.23,4.46-4.9l9.36-6.68c2.38-1.78,6.01-5.04,10.92-9.79
		C1455.08,1189.66,1458.2,1186.17,1459.54,1183.95z"/>
</g>
<path class="st2" d="M1175.36,654.66c0,0,35.74,0.34,59.57-13.62s13.52-36.51,13.52-36.51s-16.99,15.33-62.23,17.58L1175.36,654.66z
	"/>
</svg>
